<svg id="Layer_1" data-name="Layer 1" xmlns="http://www.w3.org/2000/svg" viewBox="0 0 574.25 374.41"><defs><style>.cls-1{fill:#36b5f1;}.cls-2{fill:#bac2c8;}.cls-3{fill:#24a3de;}</style></defs><circle class="cls-1" cx="296.25" cy="39.35" r="3.07"/><circle class="cls-1" cx="304.93" cy="45.67" r="2.41"/><circle class="cls-1" cx="313.33" cy="52.75" r="2.41"/><circle class="cls-1" cx="320.41" cy="59.47" r="2.57"/><circle class="cls-1" cx="326.92" cy="66.55" r="2.57"/><circle class="cls-1" cx="333.29" cy="73.77" r="2.57"/><circle class="cls-1" cx="339.28" cy="80.72" r="2.38"/><circle class="cls-1" cx="342.98" cy="86.97" r="2.19"/><circle class="cls-1" cx="346.32" cy="93.19" r="2.19"/><circle class="cls-1" cx="350.16" cy="99.68" r="1.7"/><circle class="cls-1" cx="353.84" cy="106.23" r="1.7"/><circle class="cls-1" cx="356.53" cy="111.92" r="1.7"/><circle class="cls-1" cx="359.1" cy="117.36" r="1.43"/><circle class="cls-1" cx="361.6" cy="122.67" r="1.43"/><circle class="cls-1" cx="363.56" cy="128.06" r="1.43"/><circle class="cls-1" cx="365.51" cy="134.3" r="1.43"/><circle class="cls-1" cx="28.69" cy="102.81" r="8.68"/><circle class="cls-1" cx="42.27" cy="79.88" r="8.68"/><circle class="cls-1" cx="58.13" cy="63.55" r="8.68"/><circle class="cls-1" cx="76.81" cy="46.19" r="8.68"/><circle class="cls-1" cx="94.64" cy="32.55" r="6.65"/><circle class="cls-1" cx="116.44" cy="21.8" r="6.65"/><circle class="cls-1" cx="134.56" cy="15.14" r="5.87"/><circle class="cls-1" cx="152.68" cy="9.27" r="5.87"/><circle class="cls-1" cx="172.77" cy="7.29" r="5.87"/><circle class="cls-1" cx="189.48" cy="5.87" r="5.87"/><circle class="cls-1" cx="205.9" cy="6.05" r="4.64"/><circle class="cls-1" cx="222.22" cy="8.13" r="4.64"/><circle class="cls-1" cx="236.28" cy="11.75" r="4.64"/><circle class="cls-1" cx="250.39" cy="15.86" r="4.11"/><circle class="cls-1" cx="263.23" cy="20.57" r="3.54"/><circle class="cls-1" cx="274.93" cy="26.61" r="3.54"/><circle class="cls-1" cx="286.63" cy="33.22" r="3.07"/><circle class="cls-1" cx="18.49" cy="127.72" r="8.68"/><circle class="cls-1" cx="11.8" cy="157.82" r="8.68"/><circle class="cls-1" cx="8.68" cy="185.66" r="8.68"/><circle class="cls-1" cx="11.8" cy="215.76" r="8.68"/><circle class="cls-1" cx="17.36" cy="245.86" r="8.68"/><circle class="cls-1" cx="29.16" cy="271.62" r="8.68"/><circle class="cls-1" cx="45.01" cy="293.7" r="8.68"/><circle class="cls-1" cx="60.39" cy="311.56" r="7.01"/><circle class="cls-1" cx="79.64" cy="329.68" r="7.01"/><circle class="cls-1" cx="98.32" cy="343.71" r="7.01"/><circle class="cls-1" cx="117.57" cy="352.49" r="7.01"/><circle class="cls-1" cx="134.84" cy="359.5" r="7.01"/><circle class="cls-1" cx="154.23" cy="364.97" r="5.47"/><circle class="cls-1" cx="173.82" cy="367.39" r="5.47"/><circle class="cls-1" cx="191.4" cy="368.94" r="5.47"/><circle class="cls-1" cx="207.53" cy="368.94" r="5.47"/><circle class="cls-1" cx="223.09" cy="366.51" r="4.67"/><circle class="cls-1" cx="237.33" cy="363.95" r="4.67"/><circle class="cls-1" cx="252.33" cy="359.5" r="4.67"/><circle class="cls-1" cx="264.18" cy="354.26" r="3.99"/><circle class="cls-1" cx="276.57" cy="348.75" r="3.99"/><circle class="cls-1" cx="287.14" cy="342.15" r="3.99"/><circle class="cls-1" cx="297.12" cy="336.07" r="3.4"/><circle class="cls-1" cx="305.13" cy="328.99" r="3.4"/><circle class="cls-1" cx="314.56" cy="322.01" r="3.4"/><circle class="cls-1" cx="321.55" cy="315.73" r="2.9"/><circle class="cls-1" cx="327.59" cy="308.55" r="2.9"/><circle class="cls-1" cx="333.67" cy="301.24" r="2.37"/><circle class="cls-1" cx="339.19" cy="294.45" r="2.37"/><circle class="cls-1" cx="344.11" cy="287.9" r="2.02"/><circle class="cls-1" cx="347.86" cy="281.41" r="2.02"/><circle class="cls-1" cx="352.17" cy="274.97" r="2.02"/><circle class="cls-1" cx="355.23" cy="268.63" r="1.62"/><circle class="cls-1" cx="358.02" cy="263" r="1.62"/><circle class="cls-1" cx="360.74" cy="257.66" r="1.27"/><circle class="cls-1" cx="363.17" cy="251.32" r="1.3"/><circle class="cls-1" cx="364.84" cy="245.9" r="1.29"/><circle class="cls-1" cx="366.3" cy="241.28" r="1.29"/><circle class="cls-1" cx="368.14" cy="236.58" r="1.29"/><circle class="cls-1" cx="369.7" cy="230.92" r="1.29"/><circle class="cls-2" cx="79.08" cy="75.18" r="7.17"/><circle class="cls-2" cx="95.93" cy="60.55" r="6.65"/><circle class="cls-2" cx="128.2" cy="40.26" r="6.65"/><circle class="cls-2" cx="113.05" cy="49.75" r="6.65"/><circle class="cls-2" cx="145.54" cy="33.61" r="5.87"/><circle class="cls-2" cx="161.39" cy="29.55" r="5.87"/><circle class="cls-2" cx="194.58" cy="25.45" r="5.87"/><circle class="cls-2" cx="178.94" cy="27.15" r="5.87"/><circle class="cls-2" cx="209.32" cy="27.15" r="4.64"/><circle class="cls-2" cx="222.69" cy="27.74" r="4.64"/><circle class="cls-2" cx="235.44" cy="30.21" r="4.64"/><circle class="cls-2" cx="247.28" cy="34.51" r="4.11"/><circle class="cls-2" cx="258.82" cy="38.62" r="3.54"/><circle class="cls-2" cx="268.73" cy="43.19" r="3.54"/><circle class="cls-2" cx="278.16" cy="48.14" r="3.07"/><circle class="cls-2" cx="286.64" cy="53.9" r="3.07"/><circle class="cls-2" cx="294.89" cy="60.36" r="2.41"/><circle class="cls-2" cx="302.62" cy="66.12" r="2.57"/><circle class="cls-2" cx="308.99" cy="73.33" r="2.57"/><circle class="cls-2" cx="315.01" cy="78.47" r="2.57"/><circle class="cls-2" cx="319.92" cy="85.54" r="2.38"/><circle class="cls-2" cx="324.63" cy="91.43" r="2.19"/><circle class="cls-2" cx="328.47" cy="96.49" r="2.12"/><circle class="cls-2" cx="332.52" cy="102.25" r="2.12"/><circle class="cls-2" cx="335.51" cy="108.01" r="2.12"/><circle class="cls-2" cx="339.04" cy="113.34" r="1.7"/><circle class="cls-2" cx="341.45" cy="118.44" r="1.7"/><circle class="cls-2" cx="343.71" cy="123.24" r="1.43"/><circle class="cls-2" cx="345.68" cy="128.55" r="1.43"/><circle class="cls-2" cx="347.44" cy="133.86" r="1.43"/><circle class="cls-2" cx="36.53" cy="159.44" r="8.68"/><circle class="cls-2" cx="45.21" cy="133.59" r="8.68"/><circle class="cls-2" cx="53.89" cy="111.69" r="8.68"/><circle class="cls-2" cx="66.34" cy="92.16" r="8.68"/><circle class="cls-2" cx="35.3" cy="185.96" r="8.68"/><circle class="cls-2" cx="38.7" cy="213.79" r="8.68"/><circle class="cls-2" cx="45.21" cy="238.52" r="8.68"/><circle class="cls-2" cx="53.89" cy="260.41" r="8.68"/><circle class="cls-2" cx="65.21" cy="280.6" r="8.68"/><circle class="cls-2" cx="80.22" cy="297.38" r="7.01"/><circle class="cls-2" cx="96.57" cy="311.65" r="7.01"/><circle class="cls-2" cx="112.3" cy="322.87" r="7.01"/><circle class="cls-2" cx="127.58" cy="331.36" r="7.01"/><circle class="cls-2" cx="146.74" cy="339.91" r="7.01"/><circle class="cls-2" cx="162.73" cy="343.05" r="5.47"/><circle class="cls-2" cx="179.12" cy="345.23" r="5.47"/><circle class="cls-2" cx="194.59" cy="346.22" r="5.47"/><circle class="cls-2" cx="210.07" cy="346.22" r="5.47"/><circle class="cls-2" cx="223.46" cy="343.05" r="4.67"/><circle class="cls-2" cx="269.78" cy="328.11" r="3.99"/><circle class="cls-2" cx="258.61" cy="332.9" r="3.99"/><circle class="cls-2" cx="248.09" cy="338.38" r="3.99"/><circle class="cls-2" cx="235.63" cy="341.4" r="3.99"/><circle class="cls-2" cx="278.75" cy="322.87" r="3.99"/><circle class="cls-2" cx="287.71" cy="317.4" r="3.4"/><circle class="cls-2" cx="294.85" cy="311.65" r="3.4"/><circle class="cls-2" cx="301.93" cy="305.99" r="3.4"/><circle class="cls-2" cx="309.1" cy="299.42" r="2.9"/><circle class="cls-2" cx="314.71" cy="293.15" r="2.37"/><circle class="cls-2" cx="319.76" cy="287.48" r="2.37"/><circle class="cls-2" cx="324.4" cy="281.71" r="2.02"/><circle class="cls-2" cx="328.43" cy="276.21" r="2.02"/><circle class="cls-2" cx="332.1" cy="270.32" r="2.02"/><circle class="cls-2" cx="335.26" cy="264.84" r="1.62"/><circle class="cls-2" cx="338.45" cy="259.17" r="1.62"/><circle class="cls-2" cx="340.88" cy="253.82" r="1.27"/><circle class="cls-2" cx="343.16" cy="249.34" r="1.3"/><circle class="cls-2" cx="344.54" cy="243.95" r="1.29"/><circle class="cls-2" cx="346.69" cy="239.74" r="1.29"/><circle class="cls-2" cx="348.08" cy="234.84" r="1.29"/><circle class="cls-2" cx="349.37" cy="229.93" r="1.29"/><ellipse class="cls-3" cx="97.53" cy="92.05" rx="6.1" ry="6.02"/><ellipse class="cls-3" cx="111.85" cy="79.76" rx="5.66" ry="5.59"/><ellipse class="cls-3" cx="139.3" cy="62.72" rx="5.66" ry="5.59"/><ellipse class="cls-3" cx="126.42" cy="70.69" rx="5.66" ry="5.59"/><ellipse class="cls-3" cx="154.04" cy="57.13" rx="5" ry="4.93"/><ellipse class="cls-3" cx="167.52" cy="53.73" rx="5" ry="4.93"/><ellipse class="cls-3" cx="195.75" cy="50.28" rx="5" ry="4.93"/><ellipse class="cls-3" cx="182.45" cy="51.7" rx="5" ry="4.93"/><ellipse class="cls-3" cx="208.28" cy="51.7" rx="3.94" ry="3.89"/><ellipse class="cls-3" cx="219.66" cy="52.2" rx="3.94" ry="3.89"/><ellipse class="cls-3" cx="230.5" cy="54.28" rx="3.94" ry="3.89"/><ellipse class="cls-3" cx="240.57" cy="57.89" rx="3.5" ry="3.45"/><ellipse class="cls-3" cx="250.39" cy="61.34" rx="3.01" ry="2.97"/><ellipse class="cls-3" cx="258.81" cy="65.18" rx="3.01" ry="2.97"/><ellipse class="cls-3" cx="266.83" cy="69.34" rx="2.61" ry="2.58"/><ellipse class="cls-3" cx="274.04" cy="74.18" rx="2.61" ry="2.58"/><ellipse class="cls-3" cx="281.06" cy="79.61" rx="2.05" ry="2.02"/><ellipse class="cls-3" cx="287.64" cy="84.44" rx="2.19" ry="2.16"/><ellipse class="cls-3" cx="293.05" cy="90.5" rx="2.19" ry="2.16"/><ellipse class="cls-3" cx="298.17" cy="94.82" rx="2.19" ry="2.16"/><ellipse class="cls-3" cx="302.35" cy="100.76" rx="2.02" ry="2"/><ellipse class="cls-3" cx="306.35" cy="105.7" rx="1.87" ry="1.84"/><ellipse class="cls-3" cx="309.61" cy="109.96" rx="1.8" ry="1.78"/><ellipse class="cls-3" cx="313.06" cy="114.79" rx="1.8" ry="1.78"/><ellipse class="cls-3" cx="315.61" cy="119.63" rx="1.8" ry="1.78"/><ellipse class="cls-3" cx="318.6" cy="124.1" rx="1.44" ry="1.43"/><ellipse class="cls-3" cx="320.65" cy="128.39" rx="1.44" ry="1.43"/><ellipse class="cls-3" cx="322.58" cy="132.42" rx="1.21" ry="1.2"/><ellipse class="cls-3" cx="61.33" cy="162.83" rx="7.38" ry="7.29"/><ellipse class="cls-3" cx="68.72" cy="141.11" rx="7.38" ry="7.29"/><ellipse class="cls-3" cx="76.1" cy="122.72" rx="7.38" ry="7.29"/><ellipse class="cls-3" cx="86.69" cy="106.32" rx="7.38" ry="7.29"/><ellipse class="cls-3" cx="60.29" cy="185.11" rx="7.38" ry="7.29"/><ellipse class="cls-3" cx="63.18" cy="208.49" rx="7.38" ry="7.29"/><ellipse class="cls-3" cx="68.72" cy="229.25" rx="7.38" ry="7.29"/><ellipse class="cls-3" cx="76.1" cy="247.64" rx="7.38" ry="7.29"/><ellipse class="cls-3" cx="85.73" cy="264.61" rx="7.38" ry="7.29"/><ellipse class="cls-3" cx="98.49" cy="278.7" rx="5.97" ry="5.89"/><ellipse class="cls-3" cx="112.4" cy="290.69" rx="5.97" ry="5.89"/><ellipse class="cls-3" cx="125.77" cy="300.11" rx="5.97" ry="5.89"/><ellipse class="cls-3" cx="138.77" cy="307.25" rx="5.97" ry="5.89"/><ellipse class="cls-3" cx="155.06" cy="314.43" rx="5.97" ry="5.89"/><ellipse class="cls-3" cx="168.67" cy="317.06" rx="4.65" ry="4.6"/><ellipse class="cls-3" cx="182.6" cy="318.9" rx="4.65" ry="4.6"/><ellipse class="cls-3" cx="195.76" cy="319.72" rx="4.65" ry="4.6"/><ellipse class="cls-3" cx="208.93" cy="319.72" rx="4.65" ry="4.6"/><ellipse class="cls-3" cx="220.31" cy="317.06" rx="3.97" ry="3.92"/><ellipse class="cls-3" cx="259.71" cy="304.51" rx="3.39" ry="3.35"/><ellipse class="cls-3" cx="250.21" cy="308.53" rx="3.39" ry="3.35"/><ellipse class="cls-3" cx="241.25" cy="313.14" rx="3.39" ry="3.35"/><ellipse class="cls-3" cx="230.66" cy="315.67" rx="3.39" ry="3.35"/><ellipse class="cls-3" cx="267.33" cy="300.11" rx="3.39" ry="3.35"/><ellipse class="cls-3" cx="274.95" cy="295.52" rx="2.89" ry="2.86"/><ellipse class="cls-3" cx="281.03" cy="290.69" rx="2.89" ry="2.86"/><ellipse class="cls-3" cx="287.04" cy="285.93" rx="2.89" ry="2.86"/><ellipse class="cls-3" cx="293.14" cy="280.41" rx="2.47" ry="2.44"/><ellipse class="cls-3" cx="297.92" cy="275.14" rx="2.01" ry="1.99"/><ellipse class="cls-3" cx="302.21" cy="270.39" rx="2.01" ry="1.99"/><ellipse class="cls-3" cx="306.15" cy="265.54" rx="1.72" ry="1.7"/><ellipse class="cls-3" cx="309.58" cy="260.92" rx="1.72" ry="1.7"/><ellipse class="cls-3" cx="312.7" cy="255.97" rx="1.72" ry="1.7"/><ellipse class="cls-3" cx="315.39" cy="251.37" rx="1.38" ry="1.36"/><ellipse class="cls-3" cx="318.11" cy="246.6" rx="1.38" ry="1.36"/><ellipse class="cls-3" cx="320.17" cy="242.11" rx="1.08" ry="1.07"/><ellipse class="cls-3" cx="322.11" cy="238.35" rx="1.11" ry="1.09"/><ellipse class="cls-3" cx="323.29" cy="233.82" rx="1.1" ry="1.08"/><ellipse class="cls-3" cx="325.11" cy="230.28" rx="1.1" ry="1.08"/><path class="cls-2" d="M428.54,486.82l-19,25.36h-2.17l-18.6-25.44V529.2h-11V470.8h12.68l18.26,25.11L427,470.8h12.6v58.4h-11Z" transform="translate(-212.88 -312.79)"/><path class="cls-2" d="M509.61,499.42c.25,14.76-8.76,29.69-29.19,29.69H457.48V470.72h22.94C500.44,470.72,509.36,485,509.61,499.42Zm-41.2,19.1h12c13.26,0,18.52-9.68,18.27-19.19-.25-9.09-5.59-18.18-18.27-18.18h-12Z" transform="translate(-212.88 -312.79)"/><path class="cls-2" d="M565.5,480.73H547v-10h48v10H576.51v48.38h-11Z" transform="translate(-212.88 -312.79)"/><path class="cls-2" d="M653.58,529.11H609.87V470.72h43.71V481.4H620.8v13.43h31.61v10.26H620.8v13.18h32.78Z" transform="translate(-212.88 -312.79)"/><path class="cls-2" d="M721.9,521.77c-6,5.92-13.77,8.68-22.19,8.68-21.69,0-30.87-14.93-31-30.12s9.84-30.78,31-30.78a30.16,30.16,0,0,1,21.44,8.93l-7.34,7.09a20,20,0,0,0-14.1-5.51c-14.1,0-20.19,10.51-20.1,20.27s5.67,19.77,20.1,19.77a21.48,21.48,0,0,0,14.68-5.92Z" transform="translate(-212.88 -312.79)"/><path class="cls-2" d="M776.2,529.2V505.59H747.5V529.2h-11V470.8h11v24.61h28.7V470.8h10.92v58.4Z" transform="translate(-212.88 -312.79)"/><path class="cls-3" d="M609.2,546.91a3.85,3.85,0,0,0-3.18-1.49c-1.89,0-2.79.78-2.79,1.78,0,1.17,1.38,1.5,3,1.69,2.8.35,5.41,1.08,5.41,4.29,0,3-2.65,4.28-5.64,4.28-2.75,0-4.86-.84-5.86-3.3l2.11-1.1a3.83,3.83,0,0,0,3.78,2.13c1.6,0,3.1-.55,3.1-2,0-1.27-1.33-1.79-3.11-2-2.75-.33-5.29-1.06-5.29-4.08,0-2.76,2.73-3.9,5.21-3.91,2.09,0,4.26.59,5.28,2.67Z" transform="translate(-212.88 -312.79)"/><path class="cls-3" d="M636.43,550.47c0,3.48-2.17,6.95-6.9,6.95s-6.92-3.4-6.92-6.93,2.27-7.09,6.92-7.09A6.68,6.68,0,0,1,636.43,550.47Zm-11.32,0c.06,2.21,1.25,4.58,4.42,4.58s4.36-2.38,4.4-4.59-1.23-4.81-4.4-4.81S625.05,548.26,625.11,550.52Z" transform="translate(-212.88 -312.79)"/><path class="cls-3" d="M650.43,543.67v11.1h6.92v2.35H647.9V543.67Z" transform="translate(-212.88 -312.79)"/><path class="cls-3" d="M679.75,543.69v7.7c0,4-2.44,6-5.82,6a5.61,5.61,0,0,1-6-6v-7.7h2.52v7.7c0,2.42,1.38,3.71,3.48,3.71s3.28-1.4,3.28-3.71v-7.7Z" transform="translate(-212.88 -312.79)"/><path class="cls-3" d="M695.31,546h-4.26v-2.3h11.06V546h-4.26v11.15h-2.54Z" transform="translate(-212.88 -312.79)"/><path class="cls-3" d="M713.27,557.12V543.67h2.52v13.45Z" transform="translate(-212.88 -312.79)"/><path class="cls-3" d="M741.4,550.47c0,3.48-2.17,6.95-6.9,6.95s-6.91-3.4-6.91-6.93,2.26-7.09,6.91-7.09A6.68,6.68,0,0,1,741.4,550.47Zm-11.32,0c.06,2.21,1.25,4.58,4.42,4.58s4.36-2.38,4.4-4.59-1.23-4.81-4.4-4.81S730,548.26,730.08,550.52Z" transform="translate(-212.88 -312.79)"/><path class="cls-3" d="M761.71,543.65h2.53v13.47h-1.57l-7.07-9.08v9.07h-2.54V543.67h2.06l6.59,8.33Z" transform="translate(-212.88 -312.79)"/><path class="cls-3" d="M784.68,546.91a3.87,3.87,0,0,0-3.19-1.49c-1.88,0-2.78.78-2.78,1.78,0,1.17,1.38,1.5,3,1.69,2.8.35,5.41,1.08,5.41,4.29,0,3-2.65,4.28-5.64,4.28-2.75,0-4.86-.84-5.86-3.3l2.11-1.1a3.82,3.82,0,0,0,3.78,2.13c1.6,0,3.1-.55,3.1-2,0-1.27-1.33-1.79-3.12-2-2.74-.33-5.28-1.06-5.28-4.08,0-2.76,2.73-3.9,5.21-3.91,2.09,0,4.26.59,5.28,2.67Z" transform="translate(-212.88 -312.79)"/></svg>