<?xml version="1.0" encoding="utf-8"?>
<!-- Generator: Adobe Illustrator 24.1.1, SVG Export Plug-In . SVG Version: 6.00 Build 0)  -->
<svg version="1.1" id="Layer_1" xmlns="http://www.w3.org/2000/svg" xmlns:xlink="http://www.w3.org/1999/xlink" x="0px" y="0px"
	 viewBox="0 0 1000 800" style="enable-background:new 0 0 1000 800;" xml:space="preserve">
<style type="text/css">
	.st0{fill:#750787;}
	.st1{fill:#004DFF;}
	.st2{fill:#008026;}
	.st3{fill:#E40303;}
	.st4{fill:#FFED00;}
	.st5{fill:#FF8C00;}
</style>
<g>
	<path class="st0" d="M504.02,612.53c16.33-25.66,32.8-51.23,49.16-76.88h-98.26C471.25,561.3,487.7,586.88,504.02,612.53z"/>
	<path class="st1" d="M454.92,535.65h98.26c13.89-21.78,27.7-43.61,41.27-65.59H413.68C427.25,492.03,441.05,513.87,454.92,535.65z"
		/>
	<path class="st2" d="M376.56,408.49c12.11,20.68,24.52,41.18,37.12,61.57h180.77c14.59-23.64,28.92-47.44,42.76-71.54
		c0.05-0.1,0.1-0.21,0.15-0.31H370.67C372.47,401.72,374.42,405.16,376.56,408.49z"/>
	<path class="st3" d="M623.13,242.92c-25.03-33.89-65.28-55.95-107.31-59.02c-37.78-3.28-76.68,8.96-105.96,33.07
		c-14.93,11.98-27.22,27.02-36.37,43.79h261.22C631.31,254.55,627.45,248.57,623.13,242.92z"/>
	<path class="st4" d="M515.41,397.02c-34.57,7.17-71.08-19.03-76.22-53.76c-1.12-5.63-1.34-11.31-0.81-16.9H355.2
		c-0.02,0.55-0.05,1.09-0.07,1.64c-0.44,24.12,4.48,48.69,15.53,70.21h266.69c11.46-22.13,16.45-47.1,15.4-71.85H569.7
		C573.14,359.06,548.19,392.01,515.41,397.02z"/>
	<path class="st5" d="M373.49,260.77c-10.96,20.11-17.37,42.72-18.29,65.59h83.17c2.56-27.14,23.26-52.09,50.32-58.1
		c35.08-9.46,73.93,15.93,79.94,51.6c0.48,2.16,0.84,4.33,1.07,6.5h83.06c-0.97-22.85-7.08-45.51-18.05-65.59H373.49z"/>
	<g>
		<path class="st0" d="M210.91,555.5c-1.6,1.52-2.9,3.18-3.9,4.98c-1.67,3.01-2.5,6.41-2.5,10.22v1.04v11.38v11.25v0.99
			c0,3.8,0.83,7.2,2.49,10.2c1,1.81,2.31,3.48,3.91,5c4.27,4.04,9.46,6.07,15.56,6.07h52.03v-11.07v-11.2v-11.25v-7.93h-37v7.93
			v7.76h21.31v3.49v6.57h-36.34c-4.18,0-6.28-1.87-6.28-5.6v-0.97v-11.25v-11.38v-1.02c0-3.73,2.09-5.6,6.28-5.6h52.03v-4.64v-11.05
			h-52.03C220.36,549.43,215.17,551.45,210.91,555.5z"/>
		<path class="st0" d="M453.42,555.5c-4.27-4.04-9.46-6.07-15.56-6.07h-39.48c-6.1,0-11.29,2.02-15.56,6.07
			c-1.6,1.52-2.9,3.18-3.9,4.98c-1.67,3.01-2.5,6.41-2.5,10.22v1.04v11.38v11.25v0.99c0,3.8,0.83,7.2,2.49,10.2
			c1,1.81,2.31,3.48,3.91,5c4.27,4.04,9.46,6.07,15.56,6.07h39.48c6.1,0,11.29-2.02,15.56-6.07c1.61-1.52,2.91-3.19,3.91-5
			c1.66-3,2.49-6.4,2.49-10.2v-0.99v-11.25v-11.38v-1.04c0-3.81-0.83-7.21-2.5-10.22C456.32,558.67,455.02,557.01,453.42,555.5z
			 M444.14,583.11v11.25v0.97c0,3.73-2.09,5.6-6.28,5.6h-39.48c-4.18,0-6.28-1.87-6.28-5.6v-0.97v-11.25v-11.38v-1.02
			c0-3.73,2.09-5.6,6.28-5.6h39.48c4.18,0,6.28,1.87,6.28,5.6v1.02V583.11z"/>
		<path class="st0" d="M558.22,555.5c-1.6,1.52-2.9,3.18-3.9,4.98c-1.67,3.01-2.5,6.41-2.5,10.22v1.04v11.38v11.25v0.99
			c0,3.8,0.83,7.2,2.49,10.2c1,1.81,2.31,3.48,3.91,5c4.27,4.04,9.46,6.07,15.56,6.07h52.03v-11.07v-11.2v-11.25v-7.93h-37v7.93
			v7.76h21.31v3.49v6.57h-36.34c-4.18,0-6.28-1.87-6.28-5.6v-0.97v-11.25v-11.38v-1.02c0-3.73,2.09-5.6,6.28-5.6h52.03v-4.64v-11.05
			h-52.03C567.67,549.43,562.49,551.45,558.22,555.5z"/>
		<polygon class="st0" points="638.88,560.48 638.88,571.73 638.88,583.11 638.88,594.37 638.88,605.56 638.88,616.63 
			710.52,616.63 710.52,605.56 710.52,600.94 654.57,600.94 654.57,596.6 654.57,594.37 654.57,590.87 654.57,583.11 654.57,571.73 
			654.57,565.12 710.65,565.12 710.65,560.48 710.65,549.43 638.88,549.43 		"/>
		<polygon class="st0" points="779.81,549.43 779.81,560.48 779.81,571.73 779.81,583.11 779.81,594.37 779.81,594.4 779.78,594.37 
			769.67,583.11 759.45,571.73 749.34,560.48 739.41,549.43 723.73,549.43 723.73,560.48 723.73,571.73 723.73,583.11 
			723.73,594.37 723.73,605.56 723.73,616.63 739.41,616.63 739.41,605.56 739.41,594.37 739.41,583.11 739.41,571.73 
			739.41,571.39 739.72,571.73 749.88,583.11 759.93,594.37 769.93,605.56 779.81,616.63 795.5,616.63 795.5,605.56 795.5,594.37 
			795.5,583.11 795.5,571.73 795.5,560.48 795.5,549.43 		"/>
		<polygon class="st0" points="318.45,589.26 359.68,589.26 359.68,583.11 359.68,576.47 318.45,576.47 318.45,583.11 		"/>
		<polygon class="st0" points="665.35,589.26 706.59,589.26 706.59,583.11 706.59,576.47 665.35,576.47 665.35,583.11 		"/>
		<polygon class="st0" points="291.57,560.48 291.57,571.73 291.57,583.11 291.57,594.37 291.57,605.56 291.57,616.63 
			363.21,616.63 363.21,605.56 363.21,600.94 307.26,600.94 307.26,595.13 307.26,594.37 307.26,590.87 307.26,583.11 
			307.26,571.73 307.26,565.12 363.34,565.12 363.34,560.48 363.34,549.43 291.57,549.43 		"/>
	</g>
</g>
</svg>
