<?xml version="1.0" encoding="utf-8"?>
<!-- Generator: Adobe Illustrator 26.0.1, SVG Export Plug-In . SVG Version: 6.00 Build 0)  -->
<svg version="1.1" id="Layer_1" xmlns="http://www.w3.org/2000/svg" xmlns:xlink="http://www.w3.org/1999/xlink" x="0px" y="0px"
	 viewBox="0 0 800 600" style="enable-background:new 0 0 800 600;" xml:space="preserve">
<style type="text/css">
	.st0{fill:#FF0000;}
	.st1{fill:#750586;}
	.st2{fill:#004DFF;}
	.st3{fill:#FF8B01;}
	.st4{fill:#FFED02;}
	.st5{fill:#008025;}
	.st6{fill:#808080;}
</style>
<g>
	<g>
		<g>
			<path class="st0" d="M265.38,267.58c11.73-13.62,23.46-27.18,35.3-40.69c9.95,0.1,19.9,0.21,29.85,0.37
				c-7.17,13.51-14.45,26.97-21.68,40.48C294.34,267.68,279.89,267.63,265.38,267.58z"/>
			<path class="st1" d="M327.07,267.52c5.34-14.98,10.95-29.9,18.02-44.2c-0.31,14.87-1.15,29.69-1.73,44.52
				C339.28,267.79,331.16,267.58,327.07,267.52z"/>
			<path class="st0" d="M534.78,267.58c-33.58,0.05-67.16,0.11-100.69,0.01c5.15-8.63,10.41-17.2,15.72-25.65l0.52-0.83
				c2.85-4.55,5.74-9.15,8.34-13.98c13.73-0.1,27.46-0.14,41.18-0.19C511.52,240.44,523.15,254.01,534.78,267.58z"/>
			<path class="st2" d="M219.71,321.05c11.84-13.93,23.72-27.76,35.56-41.64c15.76,0,31.58,0,47.4,0.05
				c-8.12,14.87-16.13,29.8-24.25,44.73C258.83,322.93,239.3,322.2,219.71,321.05z"/>
			<path class="st3" d="M323.2,279.36c7.28,0,14.51,0.05,21.79,0.05c6.39,13.88,13.3,27.39,20.95,40.59
				c-19.48,1.57-39.07,2.72-58.6,3.72C312.57,308.9,317.86,294.13,323.2,279.36z"/>
			<path class="st2" d="M401.18,314.41c-4.5,0.96-9.01,1.82-13.51,2.6c-8.79-11.83-16.71-24.3-23.88-37.18
				c4.28-0.08,11.75-0.18,17.63-0.28c4.86,8.39,9.65,16.81,14.36,25.21L401.18,314.41z"/>
			<path class="st2" d="M479.01,280.04c-20.41,17.24-45.3,26.78-70.98,32.83l4.54-8.11c4.75-8.5,9.62-17,14.58-25.45
				C444.42,279.36,461.73,279.37,479.01,280.04z"/>
			<path class="st4" d="M406.36,332.52c35.67-9.01,72.43-22.52,95.42-52.95c14.25-0.16,28.49-0.21,42.74-0.37
				c23.57,26.87,46.72,54.15,70.02,81.28c-46.66,0.16-93.38,0.1-140.04,0.21C448.57,362.05,427.47,344.93,406.36,332.52z"/>
			<path class="st1" d="M204.63,338.28c21.26,1.47,42.53,2.62,63.79,3.67c-2.99,6.23-5.97,12.41-8.96,18.64
				c-24.67,0-49.33,0-74-0.05C191.85,353.1,198.24,345.71,204.63,338.28z"/>
			<path class="st5" d="M300.89,342.62c27.55-1.26,55.04-3.04,82.49-6.13c10.68,8.22,21.58,16.24,32.58,24.04
				c-40.54,0.05-81.07,0.16-121.61,0C296.54,354.51,298.69,348.54,300.89,342.62z"/>
			<g>
				<path class="st6" d="M455.85,175.29c-2.6-7.87-6.92-15.18-12.76-21.08c-13.13-13.29-33.43-19.02-51.58-14.56
					c-9.49,2.33-18.21,7.41-25.14,14.26c-3.48,3.45-6.52,7.35-8.99,11.59c-1.23,2.11-2.32,4.32-3.25,6.57
					c-0.91,2.25-1.32,4.54-2.14,6.78c-3.41,9.22-2.57,19.54,0.38,28.76c3.21,10.05,8.81,19.15,14.28,28.16
					c12.88,21.21,25.39,42.65,37.51,64.29c11.96-21.4,24.46-42.48,37.5-63.26c6.13-9.77,12.47-19.68,15.36-30.84
					C459.63,195.92,459.09,185.15,455.85,175.29z M399.46,218.87c-15.29-2.17-25.37-19.26-20.79-33.84
					c2.48-8.54,9.36-15.6,17.88-18.2c16.46-5.66,36.03,8.41,34.47,26.1C431.95,209.14,415.07,222.48,399.46,218.87z"/>
				<path class="st3" d="M455.85,175.29c-2.6-7.87-6.92-15.18-12.76-21.08c-13.13-13.29-33.43-19.02-51.58-14.56
					c-9.49,2.33-18.21,7.41-25.14,14.26c-3.48,3.45-6.52,7.35-8.99,11.59c-1.23,2.11-2.32,4.32-3.25,6.57
					c-0.91,2.25-1.32,4.54-2.14,6.78c-3.41,9.22-2.57,19.54,0.38,28.76c3.21,10.05,8.81,19.15,14.28,28.16
					c12.88,21.21,25.39,42.65,37.51,64.29c11.96-21.4,24.46-42.48,37.5-63.26c6.13-9.77,12.47-19.68,15.36-30.84
					C459.63,195.92,459.09,185.15,455.85,175.29z M399.46,218.87c-15.29-2.17-25.37-19.26-20.79-33.84
					c2.48-8.54,9.36-15.6,17.88-18.2c16.46-5.66,36.03,8.41,34.47,26.1C431.95,209.14,415.07,222.48,399.46,218.87z"/>
			</g>
		</g>
	</g>
	<g>
		<g>
			<path class="st3" d="M187.76,460.94h-56.05c-12.83,0-23.44-4.26-31.83-12.78c-8.4-8.52-12.59-19.29-12.59-32.29
				c0-12.92,4.15-23.33,12.46-31.26c8.3-7.92,18.96-11.88,31.96-11.88h49.85v15.37h-49.85c-8.44,0-15.39,2.71-20.86,8.13
				c-5.47,5.42-8.2,12.4-8.2,20.92c0,8.44,2.73,15.28,8.2,20.53c5.48,5.25,12.42,7.88,20.86,7.88h40.68v-19.24h-41.85v-14.07h57.21
				V460.94z"/>
			<path class="st3" d="M406.39,415.87c0,13-4.17,23.76-12.53,32.29c-8.36,8.52-18.98,12.78-31.9,12.78H337.3
				c-12.83,0-23.44-4.26-31.83-12.78c-8.4-8.52-12.59-19.29-12.59-32.29c0-12.92,4.15-23.33,12.46-31.26
				c8.3-7.92,18.96-11.88,31.96-11.88h24.67c13.08,0,23.76,3.95,32.02,11.88C402.26,392.54,406.39,402.95,406.39,415.87z
				 M391.15,417.16c0-8.52-2.73-15.5-8.2-20.92c-5.48-5.42-12.46-8.13-20.99-8.13H337.3c-8.44,0-15.39,2.71-20.86,8.13
				c-5.47,5.42-8.2,12.4-8.2,20.92c0,8.44,2.73,15.28,8.2,20.53c5.48,5.25,12.42,7.88,20.86,7.88h24.67
				c8.52,0,15.51-2.63,20.99-7.88C388.42,432.45,391.15,425.6,391.15,417.16z"/>
			<path class="st0" d="M517.45,460.94h-56.04c-12.83,0-23.44-4.26-31.83-12.78c-8.4-8.52-12.59-19.29-12.59-32.29
				c0-12.92,4.15-23.33,12.46-31.26c8.3-7.92,18.96-11.88,31.96-11.88h49.85v15.37h-49.85c-8.44,0-15.39,2.71-20.86,8.13
				c-5.47,5.42-8.2,12.4-8.2,20.92c0,8.44,2.73,15.28,8.2,20.53c5.48,5.25,12.42,7.88,20.86,7.88h40.68v-19.24h-41.85v-14.07h57.21
				V460.94z"/>
			<g>
				<rect x="223.52" y="408.5" class="st0" width="50.36" height="15.38"/>
				<polygon class="st3" points="201.69,460.94 277.89,460.94 277.89,445.57 217.07,445.57 217.07,388.1 277.89,388.1 
					277.89,372.74 201.69,372.74 				"/>
				<rect x="553.23" y="408.5" class="st3" width="50.36" height="15.38"/>
				<polygon class="st0" points="607.6,372.74 531.4,372.74 531.4,460.94 607.6,460.94 607.6,445.57 546.78,445.57 546.78,388.1 
					607.6,388.1 				"/>
			</g>
			<path class="st0" d="M712.71,453.32c0,5.69-1.93,8.52-5.81,8.52c-2.84,0-6.03-1.77-9.55-5.3l-56.57-56.82v61.21h-15.24v-80.58
				c0-2.07,0.57-3.86,1.68-5.36c1.12-1.51,2.71-2.26,4.78-2.26c2.84,0,5.77,1.5,8.78,4.52l56.57,56.69v-61.21h15.37V453.32z"/>
		</g>
	</g>
</g>
</svg>
