<svg id="Layer_1" data-name="Layer 1" xmlns="http://www.w3.org/2000/svg" viewBox="0 0 612.01 374.41"><defs><style>.cls-1{fill:#36b5f1;}.cls-2{fill:#bac2c8;}.cls-3{fill:#24a3de;}</style></defs><circle class="cls-1" cx="296.25" cy="39.35" r="3.07"/><circle class="cls-1" cx="304.93" cy="45.67" r="2.41"/><circle class="cls-1" cx="313.33" cy="52.75" r="2.41"/><circle class="cls-1" cx="320.41" cy="59.47" r="2.57"/><circle class="cls-1" cx="326.92" cy="66.55" r="2.57"/><circle class="cls-1" cx="333.29" cy="73.77" r="2.57"/><circle class="cls-1" cx="339.28" cy="80.72" r="2.38"/><circle class="cls-1" cx="342.98" cy="86.97" r="2.19"/><circle class="cls-1" cx="346.32" cy="93.19" r="2.19"/><circle class="cls-1" cx="350.16" cy="99.68" r="1.7"/><circle class="cls-1" cx="353.84" cy="106.23" r="1.7"/><circle class="cls-1" cx="356.53" cy="111.92" r="1.7"/><circle class="cls-1" cx="359.1" cy="117.36" r="1.43"/><circle class="cls-1" cx="361.6" cy="122.67" r="1.43"/><circle class="cls-1" cx="363.56" cy="128.06" r="1.43"/><circle class="cls-1" cx="365.51" cy="134.3" r="1.43"/><circle class="cls-1" cx="28.69" cy="102.81" r="8.68"/><circle class="cls-1" cx="42.27" cy="79.88" r="8.68"/><circle class="cls-1" cx="58.13" cy="63.55" r="8.68"/><circle class="cls-1" cx="76.81" cy="46.19" r="8.68"/><circle class="cls-1" cx="94.64" cy="32.55" r="6.65"/><circle class="cls-1" cx="116.44" cy="21.8" r="6.65"/><circle class="cls-1" cx="134.56" cy="15.14" r="5.87"/><circle class="cls-1" cx="152.68" cy="9.27" r="5.87"/><circle class="cls-1" cx="172.77" cy="7.29" r="5.87"/><circle class="cls-1" cx="189.48" cy="5.87" r="5.87"/><circle class="cls-1" cx="205.9" cy="6.05" r="4.64"/><circle class="cls-1" cx="222.22" cy="8.13" r="4.64"/><circle class="cls-1" cx="236.28" cy="11.75" r="4.64"/><circle class="cls-1" cx="250.39" cy="15.86" r="4.11"/><circle class="cls-1" cx="263.23" cy="20.57" r="3.54"/><circle class="cls-1" cx="274.93" cy="26.61" r="3.54"/><circle class="cls-1" cx="286.63" cy="33.22" r="3.07"/><circle class="cls-1" cx="18.49" cy="127.72" r="8.68"/><circle class="cls-1" cx="11.8" cy="157.82" r="8.68"/><circle class="cls-1" cx="8.68" cy="185.66" r="8.68"/><circle class="cls-1" cx="11.8" cy="215.76" r="8.68"/><circle class="cls-1" cx="17.36" cy="245.86" r="8.68"/><circle class="cls-1" cx="29.16" cy="271.62" r="8.68"/><circle class="cls-1" cx="45.01" cy="293.7" r="8.68"/><circle class="cls-1" cx="60.39" cy="311.56" r="7.01"/><circle class="cls-1" cx="79.64" cy="329.68" r="7.01"/><circle class="cls-1" cx="98.32" cy="343.71" r="7.01"/><circle class="cls-1" cx="117.57" cy="352.49" r="7.01"/><circle class="cls-1" cx="134.84" cy="359.5" r="7.01"/><circle class="cls-1" cx="154.23" cy="364.97" r="5.47"/><circle class="cls-1" cx="173.82" cy="367.39" r="5.47"/><circle class="cls-1" cx="191.4" cy="368.94" r="5.47"/><circle class="cls-1" cx="207.53" cy="368.94" r="5.47"/><circle class="cls-1" cx="223.09" cy="366.51" r="4.67"/><circle class="cls-1" cx="237.33" cy="363.95" r="4.67"/><circle class="cls-1" cx="252.33" cy="359.5" r="4.67"/><circle class="cls-1" cx="264.18" cy="354.26" r="3.99"/><circle class="cls-1" cx="276.57" cy="348.75" r="3.99"/><circle class="cls-1" cx="287.14" cy="342.15" r="3.99"/><circle class="cls-1" cx="297.12" cy="336.07" r="3.4"/><circle class="cls-1" cx="305.13" cy="328.99" r="3.4"/><circle class="cls-1" cx="314.56" cy="322.01" r="3.4"/><circle class="cls-1" cx="321.55" cy="315.73" r="2.9"/><circle class="cls-1" cx="327.59" cy="308.55" r="2.9"/><circle class="cls-1" cx="333.67" cy="301.24" r="2.37"/><circle class="cls-1" cx="339.19" cy="294.45" r="2.37"/><circle class="cls-1" cx="344.11" cy="287.9" r="2.02"/><circle class="cls-1" cx="347.86" cy="281.41" r="2.02"/><circle class="cls-1" cx="352.17" cy="274.97" r="2.02"/><circle class="cls-1" cx="355.23" cy="268.63" r="1.62"/><circle class="cls-1" cx="358.02" cy="263" r="1.62"/><circle class="cls-1" cx="360.74" cy="257.66" r="1.27"/><circle class="cls-1" cx="363.17" cy="251.32" r="1.3"/><circle class="cls-1" cx="364.84" cy="245.9" r="1.29"/><circle class="cls-1" cx="366.3" cy="241.28" r="1.29"/><circle class="cls-1" cx="368.14" cy="236.58" r="1.29"/><circle class="cls-1" cx="369.7" cy="230.92" r="1.29"/><circle class="cls-2" cx="79.08" cy="75.18" r="7.17"/><circle class="cls-2" cx="95.93" cy="60.55" r="6.65"/><circle class="cls-2" cx="128.2" cy="40.26" r="6.65"/><circle class="cls-2" cx="113.05" cy="49.75" r="6.65"/><circle class="cls-2" cx="145.54" cy="33.61" r="5.87"/><circle class="cls-2" cx="161.39" cy="29.55" r="5.87"/><circle class="cls-2" cx="194.58" cy="25.45" r="5.87"/><circle class="cls-2" cx="178.94" cy="27.15" r="5.87"/><circle class="cls-2" cx="209.32" cy="27.15" r="4.64"/><circle class="cls-2" cx="222.69" cy="27.74" r="4.64"/><circle class="cls-2" cx="235.44" cy="30.21" r="4.64"/><circle class="cls-2" cx="247.28" cy="34.51" r="4.11"/><circle class="cls-2" cx="258.82" cy="38.62" r="3.54"/><circle class="cls-2" cx="268.73" cy="43.19" r="3.54"/><circle class="cls-2" cx="278.16" cy="48.14" r="3.07"/><circle class="cls-2" cx="286.64" cy="53.9" r="3.07"/><circle class="cls-2" cx="294.89" cy="60.36" r="2.41"/><circle class="cls-2" cx="302.62" cy="66.12" r="2.57"/><circle class="cls-2" cx="308.99" cy="73.33" r="2.57"/><circle class="cls-2" cx="315.01" cy="78.47" r="2.57"/><circle class="cls-2" cx="319.92" cy="85.54" r="2.38"/><circle class="cls-2" cx="324.63" cy="91.43" r="2.19"/><circle class="cls-2" cx="328.47" cy="96.49" r="2.12"/><circle class="cls-2" cx="332.52" cy="102.25" r="2.12"/><circle class="cls-2" cx="335.51" cy="108.01" r="2.12"/><circle class="cls-2" cx="339.04" cy="113.34" r="1.7"/><circle class="cls-2" cx="341.45" cy="118.44" r="1.7"/><circle class="cls-2" cx="343.71" cy="123.24" r="1.43"/><circle class="cls-2" cx="345.68" cy="128.55" r="1.43"/><circle class="cls-2" cx="347.44" cy="133.86" r="1.43"/><circle class="cls-2" cx="36.53" cy="159.44" r="8.68"/><circle class="cls-2" cx="45.21" cy="133.59" r="8.68"/><circle class="cls-2" cx="53.89" cy="111.69" r="8.68"/><circle class="cls-2" cx="66.34" cy="92.16" r="8.68"/><circle class="cls-2" cx="35.3" cy="185.96" r="8.68"/><circle class="cls-2" cx="38.7" cy="213.79" r="8.68"/><circle class="cls-2" cx="45.21" cy="238.52" r="8.68"/><circle class="cls-2" cx="53.89" cy="260.41" r="8.68"/><circle class="cls-2" cx="65.21" cy="280.6" r="8.68"/><circle class="cls-2" cx="80.22" cy="297.38" r="7.01"/><circle class="cls-2" cx="96.57" cy="311.65" r="7.01"/><circle class="cls-2" cx="112.3" cy="322.87" r="7.01"/><circle class="cls-2" cx="127.58" cy="331.36" r="7.01"/><circle class="cls-2" cx="146.74" cy="339.91" r="7.01"/><circle class="cls-2" cx="162.73" cy="343.05" r="5.47"/><circle class="cls-2" cx="179.12" cy="345.23" r="5.47"/><circle class="cls-2" cx="194.59" cy="346.22" r="5.47"/><circle class="cls-2" cx="210.07" cy="346.22" r="5.47"/><circle class="cls-2" cx="223.46" cy="343.05" r="4.67"/><circle class="cls-2" cx="269.78" cy="328.11" r="3.99"/><circle class="cls-2" cx="258.61" cy="332.9" r="3.99"/><circle class="cls-2" cx="248.09" cy="338.38" r="3.99"/><circle class="cls-2" cx="235.63" cy="341.4" r="3.99"/><circle class="cls-2" cx="278.75" cy="322.87" r="3.99"/><circle class="cls-2" cx="287.71" cy="317.4" r="3.4"/><circle class="cls-2" cx="294.85" cy="311.65" r="3.4"/><circle class="cls-2" cx="301.93" cy="305.99" r="3.4"/><circle class="cls-2" cx="309.1" cy="299.42" r="2.9"/><circle class="cls-2" cx="314.71" cy="293.15" r="2.37"/><circle class="cls-2" cx="319.76" cy="287.48" r="2.37"/><circle class="cls-2" cx="324.4" cy="281.71" r="2.02"/><circle class="cls-2" cx="328.43" cy="276.21" r="2.02"/><circle class="cls-2" cx="332.1" cy="270.32" r="2.02"/><circle class="cls-2" cx="335.26" cy="264.84" r="1.62"/><circle class="cls-2" cx="338.45" cy="259.17" r="1.62"/><circle class="cls-2" cx="340.88" cy="253.82" r="1.27"/><circle class="cls-2" cx="343.16" cy="249.34" r="1.3"/><circle class="cls-2" cx="344.54" cy="243.95" r="1.29"/><circle class="cls-2" cx="346.69" cy="239.74" r="1.29"/><circle class="cls-2" cx="348.08" cy="234.84" r="1.29"/><circle class="cls-2" cx="349.37" cy="229.93" r="1.29"/><ellipse class="cls-3" cx="97.53" cy="92.05" rx="6.1" ry="6.02"/><ellipse class="cls-3" cx="111.85" cy="79.76" rx="5.66" ry="5.59"/><ellipse class="cls-3" cx="139.3" cy="62.72" rx="5.66" ry="5.59"/><ellipse class="cls-3" cx="126.42" cy="70.69" rx="5.66" ry="5.59"/><ellipse class="cls-3" cx="154.04" cy="57.13" rx="5" ry="4.93"/><ellipse class="cls-3" cx="167.52" cy="53.73" rx="5" ry="4.93"/><ellipse class="cls-3" cx="195.75" cy="50.28" rx="5" ry="4.93"/><ellipse class="cls-3" cx="182.45" cy="51.7" rx="5" ry="4.93"/><ellipse class="cls-3" cx="208.28" cy="51.7" rx="3.94" ry="3.89"/><ellipse class="cls-3" cx="219.66" cy="52.2" rx="3.94" ry="3.89"/><ellipse class="cls-3" cx="230.5" cy="54.28" rx="3.94" ry="3.89"/><ellipse class="cls-3" cx="240.57" cy="57.89" rx="3.5" ry="3.45"/><ellipse class="cls-3" cx="250.39" cy="61.34" rx="3.01" ry="2.97"/><ellipse class="cls-3" cx="258.81" cy="65.18" rx="3.01" ry="2.97"/><ellipse class="cls-3" cx="266.83" cy="69.34" rx="2.61" ry="2.58"/><ellipse class="cls-3" cx="274.04" cy="74.18" rx="2.61" ry="2.58"/><ellipse class="cls-3" cx="281.06" cy="79.61" rx="2.05" ry="2.02"/><ellipse class="cls-3" cx="287.64" cy="84.44" rx="2.19" ry="2.16"/><ellipse class="cls-3" cx="293.05" cy="90.5" rx="2.19" ry="2.16"/><ellipse class="cls-3" cx="298.17" cy="94.82" rx="2.19" ry="2.16"/><ellipse class="cls-3" cx="302.35" cy="100.76" rx="2.02" ry="2"/><ellipse class="cls-3" cx="306.35" cy="105.7" rx="1.87" ry="1.84"/><ellipse class="cls-3" cx="309.61" cy="109.96" rx="1.8" ry="1.78"/><ellipse class="cls-3" cx="313.06" cy="114.79" rx="1.8" ry="1.78"/><ellipse class="cls-3" cx="315.61" cy="119.63" rx="1.8" ry="1.78"/><ellipse class="cls-3" cx="318.6" cy="124.1" rx="1.44" ry="1.43"/><ellipse class="cls-3" cx="320.65" cy="128.39" rx="1.44" ry="1.43"/><ellipse class="cls-3" cx="322.58" cy="132.42" rx="1.21" ry="1.2"/><ellipse class="cls-3" cx="61.33" cy="162.83" rx="7.38" ry="7.29"/><ellipse class="cls-3" cx="68.72" cy="141.11" rx="7.38" ry="7.29"/><ellipse class="cls-3" cx="76.1" cy="122.72" rx="7.38" ry="7.29"/><ellipse class="cls-3" cx="86.69" cy="106.32" rx="7.38" ry="7.29"/><ellipse class="cls-3" cx="60.29" cy="185.11" rx="7.38" ry="7.29"/><ellipse class="cls-3" cx="63.18" cy="208.49" rx="7.38" ry="7.29"/><ellipse class="cls-3" cx="68.72" cy="229.25" rx="7.38" ry="7.29"/><ellipse class="cls-3" cx="76.1" cy="247.64" rx="7.38" ry="7.29"/><ellipse class="cls-3" cx="85.73" cy="264.61" rx="7.38" ry="7.29"/><ellipse class="cls-3" cx="98.49" cy="278.7" rx="5.97" ry="5.89"/><ellipse class="cls-3" cx="112.4" cy="290.69" rx="5.97" ry="5.89"/><ellipse class="cls-3" cx="125.77" cy="300.11" rx="5.97" ry="5.89"/><ellipse class="cls-3" cx="138.77" cy="307.25" rx="5.97" ry="5.89"/><ellipse class="cls-3" cx="155.06" cy="314.43" rx="5.97" ry="5.89"/><ellipse class="cls-3" cx="168.67" cy="317.06" rx="4.65" ry="4.6"/><ellipse class="cls-3" cx="182.6" cy="318.9" rx="4.65" ry="4.6"/><ellipse class="cls-3" cx="195.76" cy="319.72" rx="4.65" ry="4.6"/><ellipse class="cls-3" cx="208.93" cy="319.72" rx="4.65" ry="4.6"/><ellipse class="cls-3" cx="220.31" cy="317.06" rx="3.97" ry="3.92"/><ellipse class="cls-3" cx="259.71" cy="304.51" rx="3.39" ry="3.35"/><ellipse class="cls-3" cx="250.21" cy="308.53" rx="3.39" ry="3.35"/><ellipse class="cls-3" cx="241.25" cy="313.14" rx="3.39" ry="3.35"/><ellipse class="cls-3" cx="230.66" cy="315.67" rx="3.39" ry="3.35"/><ellipse class="cls-3" cx="267.33" cy="300.11" rx="3.39" ry="3.35"/><ellipse class="cls-3" cx="274.95" cy="295.52" rx="2.89" ry="2.86"/><ellipse class="cls-3" cx="281.03" cy="290.69" rx="2.89" ry="2.86"/><ellipse class="cls-3" cx="287.04" cy="285.93" rx="2.89" ry="2.86"/><ellipse class="cls-3" cx="293.14" cy="280.41" rx="2.47" ry="2.44"/><ellipse class="cls-3" cx="297.92" cy="275.14" rx="2.01" ry="1.99"/><ellipse class="cls-3" cx="302.21" cy="270.39" rx="2.01" ry="1.99"/><ellipse class="cls-3" cx="306.15" cy="265.54" rx="1.72" ry="1.7"/><ellipse class="cls-3" cx="309.58" cy="260.92" rx="1.72" ry="1.7"/><ellipse class="cls-3" cx="312.7" cy="255.97" rx="1.72" ry="1.7"/><ellipse class="cls-3" cx="315.39" cy="251.37" rx="1.38" ry="1.36"/><ellipse class="cls-3" cx="318.11" cy="246.6" rx="1.38" ry="1.36"/><ellipse class="cls-3" cx="320.17" cy="242.11" rx="1.08" ry="1.07"/><ellipse class="cls-3" cx="322.11" cy="238.35" rx="1.11" ry="1.09"/><ellipse class="cls-3" cx="323.29" cy="233.82" rx="1.1" ry="1.08"/><ellipse class="cls-3" cx="325.11" cy="230.28" rx="1.1" ry="1.08"/><path class="cls-3" d="M625.1,547.53a4.32,4.32,0,0,0-3.58-1.68c-2.11,0-3.13.89-3.13,2,0,1.32,1.56,1.68,3.37,1.9,3.15.39,6.08,1.21,6.08,4.81,0,3.36-3,4.81-6.34,4.81-3.09,0-5.46-1-6.58-3.71l2.37-1.23a4.31,4.31,0,0,0,4.25,2.39c1.79,0,3.48-.62,3.48-2.26,0-1.43-1.49-2-3.5-2.22-3.08-.37-5.93-1.19-5.93-4.58,0-3.1,3.06-4.38,5.85-4.4,2.35,0,4.78.67,5.93,3Z" transform="translate(-212.88 -312.79)"/><path class="cls-3" d="M655.67,551.53c0,3.9-2.44,7.81-7.74,7.81s-7.77-3.82-7.77-7.79,2.55-8,7.77-8S655.71,547.58,655.67,551.53Zm-12.71.06c.07,2.48,1.41,5.14,5,5.14s4.89-2.68,4.94-5.16-1.38-5.39-4.94-5.39S642.9,549.05,643,551.59Z" transform="translate(-212.88 -312.79)"/><path class="cls-3" d="M671.4,543.89v12.47h7.76V559H668.55v-15.1Z" transform="translate(-212.88 -312.79)"/><path class="cls-3" d="M704.32,543.91v8.65c0,4.47-2.74,6.75-6.54,6.75-3.62,0-6.71-2.2-6.71-6.75v-8.65h2.83v8.65c0,2.72,1.55,4.17,3.9,4.17s3.69-1.58,3.69-4.17v-8.65Z" transform="translate(-212.88 -312.79)"/><path class="cls-3" d="M721.79,546.48H717v-2.59h12.43v2.59h-4.79V559h-2.85Z" transform="translate(-212.88 -312.79)"/><path class="cls-3" d="M742,559v-15.1h2.83V559Z" transform="translate(-212.88 -312.79)"/><path class="cls-3" d="M773.54,551.53c0,3.9-2.43,7.81-7.74,7.81s-7.77-3.82-7.77-7.79,2.55-8,7.77-8S773.59,547.58,773.54,551.53Zm-12.7.06c.06,2.48,1.4,5.14,5,5.14s4.9-2.68,4.94-5.16-1.38-5.39-4.94-5.39S760.77,549.05,760.84,551.59Z" transform="translate(-212.88 -312.79)"/><path class="cls-3" d="M796.35,543.87h2.84V559h-1.77v0l-7.94-10.2V559h-2.84v-15.1H789l7.4,9.36Z" transform="translate(-212.88 -312.79)"/><path class="cls-3" d="M822.15,547.53a4.36,4.36,0,0,0-3.59-1.68c-2.11,0-3.12.89-3.12,2,0,1.32,1.55,1.68,3.36,1.9,3.15.39,6.09,1.21,6.09,4.81,0,3.36-3,4.81-6.35,4.81-3.08,0-5.46-1-6.58-3.71l2.38-1.23c.66,1.66,2.41,2.39,4.25,2.39s3.47-.62,3.47-2.26c0-1.43-1.49-2-3.5-2.22-3.08-.37-5.93-1.19-5.93-4.58,0-3.1,3.06-4.38,5.85-4.4,2.35,0,4.79.67,5.93,3Z" transform="translate(-212.88 -312.79)"/><path class="cls-2" d="M428.27,487.07l-18.5,24.67h-2.11L389.56,487v41.3H378.85v-56.8h12.33L409,495.91l17.78-24.42H439v56.8H428.27Z" transform="translate(-212.88 -312.79)"/><path class="cls-2" d="M504.71,499.32c.24,14.37-8.52,28.89-28.41,28.89H454v-56.8H476.3C495.78,471.41,504.46,485.28,504.71,499.32Zm-40.09,18.59H476.3c12.91,0,18-9.42,17.78-18.67-.25-8.84-5.44-17.69-17.78-17.69H464.62Z" transform="translate(-212.88 -312.79)"/><path class="cls-2" d="M563.62,487.88c0,4.38-2.11,8.6-7.39,11,6.66,2,9.09,9.08,9.09,12.66,0,12.65-9.49,16.71-21.26,16.71H517.12v-56.8h26.94C555.26,471.41,563.62,476.44,563.62,487.88Zm-36,6.33h16.39c6.73,0,8.93-2.84,8.93-6.09,0-2.59-2.11-7-8.93-7H527.67Zm0,24h16.39c4.38,0,10.63-1.46,10.63-6.82,0-5.11-6.25-7.79-10.63-7.79H527.67Z" transform="translate(-212.88 -312.79)"/><path class="cls-2" d="M615.31,481.15h-18v-9.74H644v9.74H626v47.06H615.31Z" transform="translate(-212.88 -312.79)"/><path class="cls-2" d="M698.56,528.21H656v-56.8h42.52V481.8H666.67v13.06h30.75v10H666.67v12.82h31.89Z" transform="translate(-212.88 -312.79)"/><path class="cls-2" d="M762.58,521.07c-5.84,5.76-13.39,8.44-21.58,8.44-21.1,0-30-14.53-30.11-29.29s9.58-30,30.11-30A29.26,29.26,0,0,1,761.85,479l-7.14,6.89A19.5,19.5,0,0,0,741,480.5c-13.72,0-19.64,10.22-19.56,19.72S727,519.45,741,519.45a20.92,20.92,0,0,0,14.28-5.76Z" transform="translate(-212.88 -312.79)"/><path class="cls-2" d="M813,528.29v-23H785.06v23H774.35v-56.8h10.71v23.94H813V471.49H823.6v56.8Z" transform="translate(-212.88 -312.79)"/></svg>