<svg id="Layer_1" data-name="Layer 1" xmlns="http://www.w3.org/2000/svg" viewBox="0 0 1000 1000"><defs><style>.cls-1{fill:#36b5f1;}.cls-2{fill:#bac2c8;}.cls-3{fill:#24a3de;}</style></defs><rect width="1000" height="1000"/><circle class="cls-1" cx="509.13" cy="352.14" r="3.07"/><circle class="cls-1" cx="517.81" cy="358.46" r="2.41"/><circle class="cls-1" cx="526.21" cy="365.54" r="2.41"/><circle class="cls-1" cx="533.28" cy="372.26" r="2.57"/><circle class="cls-1" cx="539.79" cy="379.34" r="2.57"/><circle class="cls-1" cx="546.16" cy="386.56" r="2.57"/><circle class="cls-1" cx="552.16" cy="393.51" r="2.38"/><circle class="cls-1" cx="555.86" cy="399.77" r="2.19"/><circle class="cls-1" cx="559.19" cy="405.98" r="2.19"/><circle class="cls-1" cx="563.04" cy="412.47" r="1.7"/><circle class="cls-1" cx="566.72" cy="419.03" r="1.7"/><circle class="cls-1" cx="569.4" cy="424.71" r="1.7"/><circle class="cls-1" cx="571.97" cy="430.16" r="1.43"/><circle class="cls-1" cx="574.48" cy="435.46" r="1.43"/><circle class="cls-1" cx="576.43" cy="440.85" r="1.43"/><circle class="cls-1" cx="578.38" cy="447.09" r="1.43"/><circle class="cls-1" cx="241.56" cy="415.6" r="8.68"/><circle class="cls-1" cx="255.15" cy="392.67" r="8.68"/><circle class="cls-1" cx="271" cy="376.35" r="8.68"/><circle class="cls-1" cx="289.69" cy="358.98" r="8.68"/><circle class="cls-1" cx="307.52" cy="345.35" r="6.65"/><circle class="cls-1" cx="329.32" cy="334.59" r="6.65"/><circle class="cls-1" cx="347.43" cy="327.94" r="5.87"/><circle class="cls-1" cx="365.55" cy="322.06" r="5.87"/><circle class="cls-1" cx="385.65" cy="320.08" r="5.87"/><circle class="cls-1" cx="402.35" cy="318.67" r="5.87"/><circle class="cls-1" cx="418.77" cy="318.84" r="4.64"/><circle class="cls-1" cx="435.1" cy="320.92" r="4.64"/><circle class="cls-1" cx="449.16" cy="324.54" r="4.64"/><circle class="cls-1" cx="463.27" cy="328.65" r="4.11"/><circle class="cls-1" cx="476.1" cy="333.36" r="3.54"/><circle class="cls-1" cx="487.8" cy="339.4" r="3.54"/><circle class="cls-1" cx="499.5" cy="346.01" r="3.07"/><circle class="cls-1" cx="231.37" cy="440.51" r="8.68"/><circle class="cls-1" cx="224.67" cy="470.61" r="8.68"/><circle class="cls-1" cx="221.56" cy="498.45" r="8.68"/><circle class="cls-1" cx="224.67" cy="528.55" r="8.68"/><circle class="cls-1" cx="230.24" cy="558.65" r="8.68"/><circle class="cls-1" cx="242.03" cy="584.41" r="8.68"/><circle class="cls-1" cx="257.89" cy="606.49" r="8.68"/><circle class="cls-1" cx="273.27" cy="624.36" r="7.01"/><circle class="cls-1" cx="292.52" cy="642.48" r="7.01"/><circle class="cls-1" cx="311.2" cy="656.5" r="7.01"/><circle class="cls-1" cx="330.45" cy="665.28" r="7.01"/><circle class="cls-1" cx="347.72" cy="672.29" r="7.01"/><circle class="cls-1" cx="367.11" cy="677.77" r="5.47"/><circle class="cls-1" cx="386.7" cy="680.18" r="5.47"/><circle class="cls-1" cx="404.27" cy="681.73" r="5.47"/><circle class="cls-1" cx="420.41" cy="681.73" r="5.47"/><circle class="cls-1" cx="435.97" cy="679.31" r="4.67"/><circle class="cls-1" cx="450.21" cy="676.74" r="4.67"/><circle class="cls-1" cx="465.21" cy="672.29" r="4.67"/><circle class="cls-1" cx="477.06" cy="667.06" r="3.99"/><circle class="cls-1" cx="489.45" cy="661.55" r="3.99"/><circle class="cls-1" cx="500.01" cy="654.94" r="3.99"/><circle class="cls-1" cx="509.99" cy="648.86" r="3.4"/><circle class="cls-1" cx="518" cy="641.79" r="3.4"/><circle class="cls-1" cx="527.44" cy="634.81" r="3.4"/><circle class="cls-1" cx="534.42" cy="628.52" r="2.9"/><circle class="cls-1" cx="540.46" cy="621.35" r="2.9"/><circle class="cls-1" cx="546.55" cy="614.03" r="2.37"/><circle class="cls-1" cx="552.07" cy="607.24" r="2.37"/><circle class="cls-1" cx="556.99" cy="600.69" r="2.02"/><circle class="cls-1" cx="560.73" cy="594.21" r="2.02"/><circle class="cls-1" cx="565.05" cy="587.77" r="2.02"/><circle class="cls-1" cx="568.11" cy="581.43" r="1.62"/><circle class="cls-1" cx="570.89" cy="575.79" r="1.62"/><circle class="cls-1" cx="573.62" cy="570.45" r="1.27"/><circle class="cls-1" cx="576.04" cy="564.11" r="1.3"/><circle class="cls-1" cx="577.72" cy="558.69" r="1.29"/><circle class="cls-1" cx="579.18" cy="554.07" r="1.29"/><circle class="cls-1" cx="581.02" cy="549.38" r="1.29"/><circle class="cls-1" cx="582.58" cy="543.71" r="1.29"/><circle class="cls-2" cx="291.96" cy="387.97" r="7.17"/><circle class="cls-2" cx="308.8" cy="373.34" r="6.65"/><circle class="cls-2" cx="341.07" cy="353.06" r="6.65"/><circle class="cls-2" cx="325.93" cy="362.54" r="6.65"/><circle class="cls-2" cx="358.41" cy="346.4" r="5.87"/><circle class="cls-2" cx="374.26" cy="342.35" r="5.87"/><circle class="cls-2" cx="407.46" cy="338.24" r="5.87"/><circle class="cls-2" cx="391.82" cy="339.94" r="5.87"/><circle class="cls-2" cx="422.19" cy="339.94" r="4.64"/><circle class="cls-2" cx="435.56" cy="340.53" r="4.64"/><circle class="cls-2" cx="448.31" cy="343.01" r="4.64"/><circle class="cls-2" cx="460.15" cy="347.3" r="4.11"/><circle class="cls-2" cx="471.7" cy="351.41" r="3.54"/><circle class="cls-2" cx="481.6" cy="355.98" r="3.54"/><circle class="cls-2" cx="491.04" cy="360.94" r="3.07"/><circle class="cls-2" cx="499.51" cy="366.69" r="3.07"/><circle class="cls-2" cx="507.77" cy="373.16" r="2.41"/><circle class="cls-2" cx="515.5" cy="378.91" r="2.57"/><circle class="cls-2" cx="521.87" cy="386.13" r="2.57"/><circle class="cls-2" cx="527.89" cy="391.27" r="2.57"/><circle class="cls-2" cx="532.8" cy="398.34" r="2.38"/><circle class="cls-2" cx="537.51" cy="404.22" r="2.19"/><circle class="cls-2" cx="541.34" cy="409.29" r="2.12"/><circle class="cls-2" cx="545.4" cy="415.04" r="2.12"/><circle class="cls-2" cx="548.39" cy="420.8" r="2.12"/><circle class="cls-2" cx="551.91" cy="426.13" r="1.7"/><circle class="cls-2" cx="554.32" cy="431.24" r="1.7"/><circle class="cls-2" cx="556.58" cy="436.03" r="1.43"/><circle class="cls-2" cx="558.55" cy="441.34" r="1.43"/><circle class="cls-2" cx="560.32" cy="446.65" r="1.43"/><circle class="cls-2" cx="249.4" cy="472.24" r="8.68"/><circle class="cls-2" cx="258.08" cy="446.38" r="8.68"/><circle class="cls-2" cx="266.76" cy="424.49" r="8.68"/><circle class="cls-2" cx="279.22" cy="404.96" r="8.68"/><circle class="cls-2" cx="248.17" cy="498.75" r="8.68"/><circle class="cls-2" cx="251.57" cy="526.59" r="8.68"/><circle class="cls-2" cx="258.08" cy="551.31" r="8.68"/><circle class="cls-2" cx="266.76" cy="573.2" r="8.68"/><circle class="cls-2" cx="278.09" cy="593.39" r="8.68"/><circle class="cls-2" cx="293.1" cy="610.18" r="7.01"/><circle class="cls-2" cx="309.45" cy="624.44" r="7.01"/><circle class="cls-2" cx="325.17" cy="635.66" r="7.01"/><circle class="cls-2" cx="340.46" cy="644.16" r="7.01"/><circle class="cls-2" cx="359.61" cy="652.7" r="7.01"/><circle class="cls-2" cx="375.61" cy="655.84" r="5.47"/><circle class="cls-2" cx="391.99" cy="658.02" r="5.47"/><circle class="cls-2" cx="407.47" cy="659.01" r="5.47"/><circle class="cls-2" cx="422.95" cy="659.01" r="5.47"/><circle class="cls-2" cx="436.33" cy="655.84" r="4.67"/><circle class="cls-2" cx="482.66" cy="640.9" r="3.99"/><circle class="cls-2" cx="471.49" cy="645.69" r="3.99"/><circle class="cls-2" cx="460.96" cy="651.17" r="3.99"/><circle class="cls-2" cx="448.5" cy="654.19" r="3.99"/><circle class="cls-2" cx="491.62" cy="635.66" r="3.99"/><circle class="cls-2" cx="500.58" cy="630.2" r="3.4"/><circle class="cls-2" cx="507.73" cy="624.44" r="3.4"/><circle class="cls-2" cx="514.8" cy="618.78" r="3.4"/><circle class="cls-2" cx="521.98" cy="612.21" r="2.9"/><circle class="cls-2" cx="527.59" cy="605.94" r="2.37"/><circle class="cls-2" cx="532.64" cy="600.28" r="2.37"/><circle class="cls-2" cx="537.27" cy="594.51" r="2.02"/><circle class="cls-2" cx="541.3" cy="589" r="2.02"/><circle class="cls-2" cx="544.97" cy="583.12" r="2.02"/><circle class="cls-2" cx="548.14" cy="577.63" r="1.62"/><circle class="cls-2" cx="551.33" cy="571.96" r="1.62"/><circle class="cls-2" cx="553.76" cy="566.61" r="1.27"/><circle class="cls-2" cx="556.04" cy="562.14" r="1.3"/><circle class="cls-2" cx="557.42" cy="556.74" r="1.29"/><circle class="cls-2" cx="559.57" cy="552.53" r="1.29"/><circle class="cls-2" cx="560.96" cy="547.63" r="1.29"/><circle class="cls-2" cx="562.25" cy="542.73" r="1.29"/><ellipse class="cls-3" cx="310.4" cy="404.84" rx="6.1" ry="6.02"/><ellipse class="cls-3" cx="324.73" cy="392.56" rx="5.66" ry="5.59"/><ellipse class="cls-3" cx="352.17" cy="375.52" rx="5.66" ry="5.59"/><ellipse class="cls-3" cx="339.29" cy="383.48" rx="5.66" ry="5.59"/><ellipse class="cls-3" cx="366.92" cy="369.93" rx="5" ry="4.93"/><ellipse class="cls-3" cx="380.4" cy="366.52" rx="5" ry="4.93"/><ellipse class="cls-3" cx="408.63" cy="363.07" rx="5" ry="4.93"/><ellipse class="cls-3" cx="395.33" cy="364.5" rx="5" ry="4.93"/><ellipse class="cls-3" cx="421.16" cy="364.5" rx="3.94" ry="3.89"/><ellipse class="cls-3" cx="432.53" cy="364.99" rx="3.94" ry="3.89"/><ellipse class="cls-3" cx="443.37" cy="367.07" rx="3.94" ry="3.89"/><ellipse class="cls-3" cx="453.44" cy="370.68" rx="3.5" ry="3.45"/><ellipse class="cls-3" cx="463.26" cy="374.13" rx="3.01" ry="2.97"/><ellipse class="cls-3" cx="471.69" cy="377.97" rx="3.01" ry="2.97"/><ellipse class="cls-3" cx="479.71" cy="382.13" rx="2.61" ry="2.58"/><ellipse class="cls-3" cx="486.91" cy="386.97" rx="2.61" ry="2.58"/><ellipse class="cls-3" cx="493.94" cy="392.4" rx="2.05" ry="2.02"/><ellipse class="cls-3" cx="500.51" cy="397.23" rx="2.19" ry="2.16"/><ellipse class="cls-3" cx="505.93" cy="403.29" rx="2.19" ry="2.16"/><ellipse class="cls-3" cx="511.05" cy="407.61" rx="2.19" ry="2.16"/><ellipse class="cls-3" cx="515.22" cy="413.55" rx="2.02" ry="2"/><ellipse class="cls-3" cx="519.23" cy="418.49" rx="1.87" ry="1.84"/><ellipse class="cls-3" cx="522.49" cy="422.75" rx="1.8" ry="1.78"/><ellipse class="cls-3" cx="525.94" cy="427.58" rx="1.8" ry="1.78"/><ellipse class="cls-3" cx="528.48" cy="432.42" rx="1.8" ry="1.78"/><ellipse class="cls-3" cx="531.48" cy="436.9" rx="1.44" ry="1.43"/><ellipse class="cls-3" cx="533.53" cy="441.19" rx="1.44" ry="1.43"/><ellipse class="cls-3" cx="535.45" cy="445.21" rx="1.21" ry="1.2"/><ellipse class="cls-3" cx="274.21" cy="475.63" rx="7.38" ry="7.29"/><ellipse class="cls-3" cx="281.59" cy="453.91" rx="7.38" ry="7.29"/><ellipse class="cls-3" cx="288.97" cy="435.52" rx="7.38" ry="7.29"/><ellipse class="cls-3" cx="299.57" cy="419.11" rx="7.38" ry="7.29"/><ellipse class="cls-3" cx="273.17" cy="497.9" rx="7.38" ry="7.29"/><ellipse class="cls-3" cx="276.05" cy="521.28" rx="7.38" ry="7.29"/><ellipse class="cls-3" cx="281.59" cy="542.05" rx="7.38" ry="7.29"/><ellipse class="cls-3" cx="288.97" cy="560.44" rx="7.38" ry="7.29"/><ellipse class="cls-3" cx="298.6" cy="577.4" rx="7.38" ry="7.29"/><ellipse class="cls-3" cx="311.37" cy="591.5" rx="5.97" ry="5.89"/><ellipse class="cls-3" cx="325.27" cy="603.48" rx="5.97" ry="5.89"/><ellipse class="cls-3" cx="338.65" cy="612.9" rx="5.97" ry="5.89"/><ellipse class="cls-3" cx="351.65" cy="620.04" rx="5.97" ry="5.89"/><ellipse class="cls-3" cx="367.94" cy="627.22" rx="5.97" ry="5.89"/><ellipse class="cls-3" cx="381.54" cy="629.86" rx="4.65" ry="4.6"/><ellipse class="cls-3" cx="395.47" cy="631.69" rx="4.65" ry="4.6"/><ellipse class="cls-3" cx="408.64" cy="632.52" rx="4.65" ry="4.6"/><ellipse class="cls-3" cx="421.8" cy="632.52" rx="4.65" ry="4.6"/><ellipse class="cls-3" cx="433.18" cy="629.86" rx="3.97" ry="3.92"/><ellipse class="cls-3" cx="472.58" cy="617.31" rx="3.39" ry="3.35"/><ellipse class="cls-3" cx="463.08" cy="621.33" rx="3.39" ry="3.35"/><ellipse class="cls-3" cx="454.13" cy="625.93" rx="3.39" ry="3.35"/><ellipse class="cls-3" cx="443.54" cy="628.47" rx="3.39" ry="3.35"/><ellipse class="cls-3" cx="480.21" cy="612.9" rx="3.39" ry="3.35"/><ellipse class="cls-3" cx="487.82" cy="608.31" rx="2.89" ry="2.86"/><ellipse class="cls-3" cx="493.9" cy="603.48" rx="2.89" ry="2.86"/><ellipse class="cls-3" cx="499.92" cy="598.73" rx="2.89" ry="2.86"/><ellipse class="cls-3" cx="506.02" cy="593.21" rx="2.47" ry="2.44"/><ellipse class="cls-3" cx="510.79" cy="587.94" rx="2.01" ry="1.99"/><ellipse class="cls-3" cx="515.09" cy="583.18" rx="2.01" ry="1.99"/><ellipse class="cls-3" cx="519.03" cy="578.33" rx="1.72" ry="1.7"/><ellipse class="cls-3" cx="522.45" cy="573.71" rx="1.72" ry="1.7"/><ellipse class="cls-3" cx="525.58" cy="568.77" rx="1.72" ry="1.7"/><ellipse class="cls-3" cx="528.27" cy="564.16" rx="1.38" ry="1.36"/><ellipse class="cls-3" cx="530.98" cy="559.4" rx="1.38" ry="1.36"/><ellipse class="cls-3" cx="533.05" cy="554.9" rx="1.08" ry="1.07"/><ellipse class="cls-3" cx="534.99" cy="551.14" rx="1.11" ry="1.09"/><ellipse class="cls-3" cx="536.16" cy="546.61" rx="1.1" ry="1.08"/><ellipse class="cls-3" cx="537.99" cy="543.08" rx="1.1" ry="1.08"/><path class="cls-2" d="M428.54,486.82l-19,25.36h-2.17l-18.6-25.44V529.2h-11V470.8h12.68l18.26,25.11L427,470.8h12.6v58.4h-11Z"/><path class="cls-2" d="M509.61,499.42c.25,14.76-8.76,29.69-29.19,29.69H457.48V470.72h22.94C500.44,470.72,509.36,485,509.61,499.42Zm-41.2,19.1h12c13.26,0,18.52-9.68,18.27-19.19-.25-9.09-5.59-18.18-18.27-18.18h-12Z"/><path class="cls-2" d="M565.5,480.73H547v-10h48v10H576.51v48.38h-11Z"/><path class="cls-2" d="M653.58,529.11H609.87V470.72h43.71V481.4H620.8v13.43h31.61v10.26H620.8v13.18h32.78Z"/><path class="cls-2" d="M721.9,521.77c-6,5.92-13.77,8.68-22.19,8.68-21.69,0-30.87-14.93-31-30.12s9.84-30.78,31-30.78a30.16,30.16,0,0,1,21.44,8.93l-7.34,7.09a20,20,0,0,0-14.1-5.51c-14.1,0-20.19,10.51-20.1,20.27s5.67,19.77,20.1,19.77a21.48,21.48,0,0,0,14.68-5.92Z"/><path class="cls-2" d="M776.2,529.2V505.59H747.5V529.2h-11V470.8h11v24.61h28.7V470.8h10.92v58.4Z"/><path class="cls-3" d="M609.2,546.91a3.85,3.85,0,0,0-3.18-1.49c-1.89,0-2.79.78-2.79,1.78,0,1.17,1.38,1.5,3,1.69,2.8.35,5.41,1.08,5.41,4.29,0,3-2.65,4.28-5.64,4.28-2.75,0-4.86-.84-5.86-3.3l2.11-1.1a3.83,3.83,0,0,0,3.78,2.13c1.6,0,3.1-.55,3.1-2,0-1.27-1.33-1.79-3.11-2-2.75-.33-5.29-1.06-5.29-4.08,0-2.76,2.73-3.9,5.21-3.91,2.09,0,4.26.59,5.28,2.67Z"/><path class="cls-3" d="M636.43,550.47c0,3.48-2.17,6.95-6.9,6.95s-6.92-3.4-6.92-6.93,2.27-7.09,6.92-7.09A6.68,6.68,0,0,1,636.43,550.47Zm-11.32,0c.06,2.21,1.25,4.58,4.42,4.58s4.36-2.38,4.4-4.59-1.23-4.81-4.4-4.81S625.05,548.26,625.11,550.52Z"/><path class="cls-3" d="M650.43,543.67v11.1h6.92v2.35H647.9V543.67Z"/><path class="cls-3" d="M679.75,543.69v7.7c0,4-2.44,6-5.82,6a5.61,5.61,0,0,1-6-6v-7.7h2.52v7.7c0,2.42,1.38,3.71,3.48,3.71s3.28-1.4,3.28-3.71v-7.7Z"/><path class="cls-3" d="M695.31,546h-4.26v-2.3h11.06V546h-4.26v11.15h-2.54Z"/><path class="cls-3" d="M713.27,557.12V543.67h2.52v13.45Z"/><path class="cls-3" d="M741.4,550.47c0,3.48-2.17,6.95-6.9,6.95s-6.91-3.4-6.91-6.93,2.26-7.09,6.91-7.09A6.68,6.68,0,0,1,741.4,550.47Zm-11.32,0c.06,2.21,1.25,4.58,4.42,4.58s4.36-2.38,4.4-4.59-1.23-4.81-4.4-4.81S730,548.26,730.08,550.52Z"/><path class="cls-3" d="M761.71,543.65h2.53v13.47h-1.57l-7.07-9.08v9.07h-2.54V543.67h2.06l6.59,8.33Z"/><path class="cls-3" d="M784.68,546.91a3.87,3.87,0,0,0-3.19-1.49c-1.88,0-2.78.78-2.78,1.78,0,1.17,1.38,1.5,3,1.69,2.8.35,5.41,1.08,5.41,4.29,0,3-2.65,4.28-5.64,4.28-2.75,0-4.86-.84-5.86-3.3l2.11-1.1a3.82,3.82,0,0,0,3.78,2.13c1.6,0,3.1-.55,3.1-2,0-1.27-1.33-1.79-3.12-2-2.74-.33-5.28-1.06-5.28-4.08,0-2.76,2.73-3.9,5.21-3.91,2.09,0,4.26.59,5.28,2.67Z"/></svg>