<svg id="Layer_1" data-name="Layer 1" xmlns="http://www.w3.org/2000/svg" viewBox="0 0 1000 1000"><defs><style>.cls-1{fill:#36b5f1;}.cls-2{fill:#bac2c8;}.cls-3{fill:#24a3de;}</style></defs><rect width="1000" height="1000"/><circle class="cls-1" cx="509.13" cy="352.14" r="3.07"/><circle class="cls-1" cx="517.81" cy="358.46" r="2.41"/><circle class="cls-1" cx="526.21" cy="365.54" r="2.41"/><circle class="cls-1" cx="533.28" cy="372.26" r="2.57"/><circle class="cls-1" cx="539.79" cy="379.34" r="2.57"/><circle class="cls-1" cx="546.16" cy="386.56" r="2.57"/><circle class="cls-1" cx="552.16" cy="393.51" r="2.38"/><circle class="cls-1" cx="555.86" cy="399.77" r="2.19"/><circle class="cls-1" cx="559.19" cy="405.98" r="2.19"/><circle class="cls-1" cx="563.04" cy="412.47" r="1.7"/><circle class="cls-1" cx="566.72" cy="419.03" r="1.7"/><circle class="cls-1" cx="569.4" cy="424.71" r="1.7"/><circle class="cls-1" cx="571.97" cy="430.16" r="1.43"/><circle class="cls-1" cx="574.48" cy="435.46" r="1.43"/><circle class="cls-1" cx="576.43" cy="440.85" r="1.43"/><circle class="cls-1" cx="578.38" cy="447.09" r="1.43"/><circle class="cls-1" cx="241.56" cy="415.6" r="8.68"/><circle class="cls-1" cx="255.15" cy="392.67" r="8.68"/><circle class="cls-1" cx="271" cy="376.35" r="8.68"/><circle class="cls-1" cx="289.69" cy="358.98" r="8.68"/><circle class="cls-1" cx="307.52" cy="345.35" r="6.65"/><circle class="cls-1" cx="329.32" cy="334.59" r="6.65"/><circle class="cls-1" cx="347.43" cy="327.94" r="5.87"/><circle class="cls-1" cx="365.55" cy="322.06" r="5.87"/><circle class="cls-1" cx="385.65" cy="320.08" r="5.87"/><circle class="cls-1" cx="402.35" cy="318.67" r="5.87"/><circle class="cls-1" cx="418.77" cy="318.84" r="4.64"/><circle class="cls-1" cx="435.1" cy="320.92" r="4.64"/><circle class="cls-1" cx="449.16" cy="324.54" r="4.64"/><circle class="cls-1" cx="463.27" cy="328.65" r="4.11"/><circle class="cls-1" cx="476.1" cy="333.36" r="3.54"/><circle class="cls-1" cx="487.8" cy="339.4" r="3.54"/><circle class="cls-1" cx="499.5" cy="346.01" r="3.07"/><circle class="cls-1" cx="231.37" cy="440.51" r="8.68"/><circle class="cls-1" cx="224.67" cy="470.61" r="8.68"/><circle class="cls-1" cx="221.56" cy="498.45" r="8.68"/><circle class="cls-1" cx="224.67" cy="528.55" r="8.68"/><circle class="cls-1" cx="230.24" cy="558.65" r="8.68"/><circle class="cls-1" cx="242.03" cy="584.41" r="8.68"/><circle class="cls-1" cx="257.89" cy="606.49" r="8.68"/><circle class="cls-1" cx="273.27" cy="624.36" r="7.01"/><circle class="cls-1" cx="292.52" cy="642.48" r="7.01"/><circle class="cls-1" cx="311.2" cy="656.5" r="7.01"/><circle class="cls-1" cx="330.45" cy="665.28" r="7.01"/><circle class="cls-1" cx="347.72" cy="672.29" r="7.01"/><circle class="cls-1" cx="367.11" cy="677.77" r="5.47"/><circle class="cls-1" cx="386.7" cy="680.18" r="5.47"/><circle class="cls-1" cx="404.27" cy="681.73" r="5.47"/><circle class="cls-1" cx="420.41" cy="681.73" r="5.47"/><circle class="cls-1" cx="435.97" cy="679.31" r="4.67"/><circle class="cls-1" cx="450.21" cy="676.74" r="4.67"/><circle class="cls-1" cx="465.21" cy="672.29" r="4.67"/><circle class="cls-1" cx="477.06" cy="667.06" r="3.99"/><circle class="cls-1" cx="489.45" cy="661.55" r="3.99"/><circle class="cls-1" cx="500.01" cy="654.94" r="3.99"/><circle class="cls-1" cx="509.99" cy="648.86" r="3.4"/><circle class="cls-1" cx="518" cy="641.79" r="3.4"/><circle class="cls-1" cx="527.44" cy="634.81" r="3.4"/><circle class="cls-1" cx="534.42" cy="628.52" r="2.9"/><circle class="cls-1" cx="540.46" cy="621.35" r="2.9"/><circle class="cls-1" cx="546.55" cy="614.03" r="2.37"/><circle class="cls-1" cx="552.07" cy="607.24" r="2.37"/><circle class="cls-1" cx="556.99" cy="600.69" r="2.02"/><circle class="cls-1" cx="560.73" cy="594.21" r="2.02"/><circle class="cls-1" cx="565.05" cy="587.77" r="2.02"/><circle class="cls-1" cx="568.11" cy="581.43" r="1.62"/><circle class="cls-1" cx="570.89" cy="575.79" r="1.62"/><circle class="cls-1" cx="573.62" cy="570.45" r="1.27"/><circle class="cls-1" cx="576.04" cy="564.11" r="1.3"/><circle class="cls-1" cx="577.72" cy="558.69" r="1.29"/><circle class="cls-1" cx="579.18" cy="554.07" r="1.29"/><circle class="cls-1" cx="581.02" cy="549.38" r="1.29"/><circle class="cls-1" cx="582.58" cy="543.71" r="1.29"/><circle class="cls-2" cx="291.96" cy="387.97" r="7.17"/><circle class="cls-2" cx="308.8" cy="373.34" r="6.65"/><circle class="cls-2" cx="341.07" cy="353.06" r="6.65"/><circle class="cls-2" cx="325.93" cy="362.54" r="6.65"/><circle class="cls-2" cx="358.41" cy="346.4" r="5.87"/><circle class="cls-2" cx="374.26" cy="342.35" r="5.87"/><circle class="cls-2" cx="407.46" cy="338.24" r="5.87"/><circle class="cls-2" cx="391.82" cy="339.94" r="5.87"/><circle class="cls-2" cx="422.19" cy="339.94" r="4.64"/><circle class="cls-2" cx="435.56" cy="340.53" r="4.64"/><circle class="cls-2" cx="448.31" cy="343.01" r="4.64"/><circle class="cls-2" cx="460.15" cy="347.3" r="4.11"/><circle class="cls-2" cx="471.7" cy="351.41" r="3.54"/><circle class="cls-2" cx="481.6" cy="355.98" r="3.54"/><circle class="cls-2" cx="491.04" cy="360.94" r="3.07"/><circle class="cls-2" cx="499.51" cy="366.69" r="3.07"/><circle class="cls-2" cx="507.77" cy="373.16" r="2.41"/><circle class="cls-2" cx="515.5" cy="378.91" r="2.57"/><circle class="cls-2" cx="521.87" cy="386.13" r="2.57"/><circle class="cls-2" cx="527.89" cy="391.27" r="2.57"/><circle class="cls-2" cx="532.8" cy="398.34" r="2.38"/><circle class="cls-2" cx="537.51" cy="404.22" r="2.19"/><circle class="cls-2" cx="541.34" cy="409.29" r="2.12"/><circle class="cls-2" cx="545.4" cy="415.04" r="2.12"/><circle class="cls-2" cx="548.39" cy="420.8" r="2.12"/><circle class="cls-2" cx="551.91" cy="426.13" r="1.7"/><circle class="cls-2" cx="554.32" cy="431.24" r="1.7"/><circle class="cls-2" cx="556.58" cy="436.03" r="1.43"/><circle class="cls-2" cx="558.55" cy="441.34" r="1.43"/><circle class="cls-2" cx="560.32" cy="446.65" r="1.43"/><circle class="cls-2" cx="249.4" cy="472.24" r="8.68"/><circle class="cls-2" cx="258.08" cy="446.38" r="8.68"/><circle class="cls-2" cx="266.76" cy="424.49" r="8.68"/><circle class="cls-2" cx="279.22" cy="404.96" r="8.68"/><circle class="cls-2" cx="248.17" cy="498.75" r="8.68"/><circle class="cls-2" cx="251.57" cy="526.59" r="8.68"/><circle class="cls-2" cx="258.08" cy="551.31" r="8.68"/><circle class="cls-2" cx="266.76" cy="573.2" r="8.68"/><circle class="cls-2" cx="278.09" cy="593.39" r="8.68"/><circle class="cls-2" cx="293.1" cy="610.18" r="7.01"/><circle class="cls-2" cx="309.45" cy="624.44" r="7.01"/><circle class="cls-2" cx="325.17" cy="635.66" r="7.01"/><circle class="cls-2" cx="340.46" cy="644.16" r="7.01"/><circle class="cls-2" cx="359.61" cy="652.7" r="7.01"/><circle class="cls-2" cx="375.61" cy="655.84" r="5.47"/><circle class="cls-2" cx="391.99" cy="658.02" r="5.47"/><circle class="cls-2" cx="407.47" cy="659.01" r="5.47"/><circle class="cls-2" cx="422.95" cy="659.01" r="5.47"/><circle class="cls-2" cx="436.33" cy="655.84" r="4.67"/><circle class="cls-2" cx="482.66" cy="640.9" r="3.99"/><circle class="cls-2" cx="471.49" cy="645.69" r="3.99"/><circle class="cls-2" cx="460.96" cy="651.17" r="3.99"/><circle class="cls-2" cx="448.5" cy="654.19" r="3.99"/><circle class="cls-2" cx="491.62" cy="635.66" r="3.99"/><circle class="cls-2" cx="500.58" cy="630.2" r="3.4"/><circle class="cls-2" cx="507.73" cy="624.44" r="3.4"/><circle class="cls-2" cx="514.8" cy="618.78" r="3.4"/><circle class="cls-2" cx="521.98" cy="612.21" r="2.9"/><circle class="cls-2" cx="527.59" cy="605.94" r="2.37"/><circle class="cls-2" cx="532.64" cy="600.28" r="2.37"/><circle class="cls-2" cx="537.27" cy="594.51" r="2.02"/><circle class="cls-2" cx="541.3" cy="589" r="2.02"/><circle class="cls-2" cx="544.97" cy="583.12" r="2.02"/><circle class="cls-2" cx="548.14" cy="577.63" r="1.62"/><circle class="cls-2" cx="551.33" cy="571.96" r="1.62"/><circle class="cls-2" cx="553.76" cy="566.61" r="1.27"/><circle class="cls-2" cx="556.04" cy="562.14" r="1.3"/><circle class="cls-2" cx="557.42" cy="556.74" r="1.29"/><circle class="cls-2" cx="559.57" cy="552.53" r="1.29"/><circle class="cls-2" cx="560.96" cy="547.63" r="1.29"/><circle class="cls-2" cx="562.25" cy="542.73" r="1.29"/><ellipse class="cls-3" cx="310.4" cy="404.84" rx="6.1" ry="6.02"/><ellipse class="cls-3" cx="324.73" cy="392.56" rx="5.66" ry="5.59"/><ellipse class="cls-3" cx="352.17" cy="375.52" rx="5.66" ry="5.59"/><ellipse class="cls-3" cx="339.29" cy="383.48" rx="5.66" ry="5.59"/><ellipse class="cls-3" cx="366.92" cy="369.93" rx="5" ry="4.93"/><ellipse class="cls-3" cx="380.4" cy="366.52" rx="5" ry="4.93"/><ellipse class="cls-3" cx="408.63" cy="363.07" rx="5" ry="4.93"/><ellipse class="cls-3" cx="395.33" cy="364.5" rx="5" ry="4.93"/><ellipse class="cls-3" cx="421.16" cy="364.5" rx="3.94" ry="3.89"/><ellipse class="cls-3" cx="432.53" cy="364.99" rx="3.94" ry="3.89"/><ellipse class="cls-3" cx="443.37" cy="367.07" rx="3.94" ry="3.89"/><ellipse class="cls-3" cx="453.44" cy="370.68" rx="3.5" ry="3.45"/><ellipse class="cls-3" cx="463.26" cy="374.13" rx="3.01" ry="2.97"/><ellipse class="cls-3" cx="471.69" cy="377.97" rx="3.01" ry="2.97"/><ellipse class="cls-3" cx="479.71" cy="382.13" rx="2.61" ry="2.58"/><ellipse class="cls-3" cx="486.91" cy="386.97" rx="2.61" ry="2.58"/><ellipse class="cls-3" cx="493.94" cy="392.4" rx="2.05" ry="2.02"/><ellipse class="cls-3" cx="500.51" cy="397.23" rx="2.19" ry="2.16"/><ellipse class="cls-3" cx="505.93" cy="403.29" rx="2.19" ry="2.16"/><ellipse class="cls-3" cx="511.05" cy="407.61" rx="2.19" ry="2.16"/><ellipse class="cls-3" cx="515.22" cy="413.55" rx="2.02" ry="2"/><ellipse class="cls-3" cx="519.23" cy="418.49" rx="1.87" ry="1.84"/><ellipse class="cls-3" cx="522.49" cy="422.75" rx="1.8" ry="1.78"/><ellipse class="cls-3" cx="525.94" cy="427.58" rx="1.8" ry="1.78"/><ellipse class="cls-3" cx="528.48" cy="432.42" rx="1.8" ry="1.78"/><ellipse class="cls-3" cx="531.48" cy="436.9" rx="1.44" ry="1.43"/><ellipse class="cls-3" cx="533.53" cy="441.19" rx="1.44" ry="1.43"/><ellipse class="cls-3" cx="535.45" cy="445.21" rx="1.21" ry="1.2"/><ellipse class="cls-3" cx="274.21" cy="475.63" rx="7.38" ry="7.29"/><ellipse class="cls-3" cx="281.59" cy="453.91" rx="7.38" ry="7.29"/><ellipse class="cls-3" cx="288.97" cy="435.52" rx="7.38" ry="7.29"/><ellipse class="cls-3" cx="299.57" cy="419.11" rx="7.38" ry="7.29"/><ellipse class="cls-3" cx="273.17" cy="497.9" rx="7.38" ry="7.29"/><ellipse class="cls-3" cx="276.05" cy="521.28" rx="7.38" ry="7.29"/><ellipse class="cls-3" cx="281.59" cy="542.05" rx="7.38" ry="7.29"/><ellipse class="cls-3" cx="288.97" cy="560.44" rx="7.38" ry="7.29"/><ellipse class="cls-3" cx="298.6" cy="577.4" rx="7.38" ry="7.29"/><ellipse class="cls-3" cx="311.37" cy="591.5" rx="5.97" ry="5.89"/><ellipse class="cls-3" cx="325.27" cy="603.48" rx="5.97" ry="5.89"/><ellipse class="cls-3" cx="338.65" cy="612.9" rx="5.97" ry="5.89"/><ellipse class="cls-3" cx="351.65" cy="620.04" rx="5.97" ry="5.89"/><ellipse class="cls-3" cx="367.94" cy="627.22" rx="5.97" ry="5.89"/><ellipse class="cls-3" cx="381.54" cy="629.86" rx="4.65" ry="4.6"/><ellipse class="cls-3" cx="395.47" cy="631.69" rx="4.65" ry="4.6"/><ellipse class="cls-3" cx="408.64" cy="632.52" rx="4.65" ry="4.6"/><ellipse class="cls-3" cx="421.8" cy="632.52" rx="4.65" ry="4.6"/><ellipse class="cls-3" cx="433.18" cy="629.86" rx="3.97" ry="3.92"/><ellipse class="cls-3" cx="472.58" cy="617.31" rx="3.39" ry="3.35"/><ellipse class="cls-3" cx="463.08" cy="621.33" rx="3.39" ry="3.35"/><ellipse class="cls-3" cx="454.13" cy="625.93" rx="3.39" ry="3.35"/><ellipse class="cls-3" cx="443.54" cy="628.47" rx="3.39" ry="3.35"/><ellipse class="cls-3" cx="480.21" cy="612.9" rx="3.39" ry="3.35"/><ellipse class="cls-3" cx="487.82" cy="608.31" rx="2.89" ry="2.86"/><ellipse class="cls-3" cx="493.9" cy="603.48" rx="2.89" ry="2.86"/><ellipse class="cls-3" cx="499.92" cy="598.73" rx="2.89" ry="2.86"/><ellipse class="cls-3" cx="506.02" cy="593.21" rx="2.47" ry="2.44"/><ellipse class="cls-3" cx="510.79" cy="587.94" rx="2.01" ry="1.99"/><ellipse class="cls-3" cx="515.09" cy="583.18" rx="2.01" ry="1.99"/><ellipse class="cls-3" cx="519.03" cy="578.33" rx="1.72" ry="1.7"/><ellipse class="cls-3" cx="522.45" cy="573.71" rx="1.72" ry="1.7"/><ellipse class="cls-3" cx="525.58" cy="568.77" rx="1.72" ry="1.7"/><ellipse class="cls-3" cx="528.27" cy="564.16" rx="1.38" ry="1.36"/><ellipse class="cls-3" cx="530.98" cy="559.4" rx="1.38" ry="1.36"/><ellipse class="cls-3" cx="533.05" cy="554.9" rx="1.08" ry="1.07"/><ellipse class="cls-3" cx="534.99" cy="551.14" rx="1.11" ry="1.09"/><ellipse class="cls-3" cx="536.16" cy="546.61" rx="1.1" ry="1.08"/><ellipse class="cls-3" cx="537.99" cy="543.08" rx="1.1" ry="1.08"/><path class="cls-3" d="M625.1,547.53a4.32,4.32,0,0,0-3.58-1.68c-2.11,0-3.13.89-3.13,2,0,1.32,1.56,1.68,3.37,1.9,3.15.39,6.08,1.21,6.08,4.81,0,3.36-3,4.81-6.34,4.81-3.09,0-5.46-1-6.58-3.71l2.37-1.23a4.31,4.31,0,0,0,4.25,2.39c1.79,0,3.48-.62,3.48-2.26,0-1.43-1.49-2-3.5-2.22-3.08-.37-5.93-1.19-5.93-4.58,0-3.1,3.06-4.38,5.85-4.4,2.35,0,4.78.67,5.93,3Z"/><path class="cls-3" d="M655.67,551.53c0,3.9-2.44,7.81-7.74,7.81s-7.77-3.82-7.77-7.79,2.55-8,7.77-8S655.71,547.58,655.67,551.53Zm-12.71.06c.07,2.48,1.41,5.14,5,5.14s4.89-2.68,4.94-5.16-1.38-5.39-4.94-5.39S642.9,549.05,643,551.59Z"/><path class="cls-3" d="M671.4,543.89v12.47h7.76V559H668.55v-15.1Z"/><path class="cls-3" d="M704.32,543.91v8.65c0,4.47-2.74,6.75-6.54,6.75-3.62,0-6.71-2.2-6.71-6.75v-8.65h2.83v8.65c0,2.72,1.55,4.17,3.9,4.17s3.69-1.58,3.69-4.17v-8.65Z"/><path class="cls-3" d="M721.79,546.48H717v-2.59h12.43v2.59h-4.79V559h-2.85Z"/><path class="cls-3" d="M742,559v-15.1h2.83V559Z"/><path class="cls-3" d="M773.54,551.53c0,3.9-2.43,7.81-7.74,7.81s-7.77-3.82-7.77-7.79,2.55-8,7.77-8S773.59,547.58,773.54,551.53Zm-12.7.06c.06,2.48,1.4,5.14,5,5.14s4.9-2.68,4.94-5.16-1.38-5.39-4.94-5.39S760.77,549.05,760.84,551.59Z"/><path class="cls-3" d="M796.35,543.87h2.84V559h-1.77v0l-7.94-10.2V559h-2.84v-15.1H789l7.4,9.36Z"/><path class="cls-3" d="M822.15,547.53a4.36,4.36,0,0,0-3.59-1.68c-2.11,0-3.12.89-3.12,2,0,1.32,1.55,1.68,3.36,1.9,3.15.39,6.09,1.21,6.09,4.81,0,3.36-3,4.81-6.35,4.81-3.08,0-5.46-1-6.58-3.71l2.38-1.23c.66,1.66,2.41,2.39,4.25,2.39s3.47-.62,3.47-2.26c0-1.43-1.49-2-3.5-2.22-3.08-.37-5.93-1.19-5.93-4.58,0-3.1,3.06-4.38,5.85-4.4,2.35,0,4.79.67,5.93,3Z"/><path class="cls-2" d="M428.27,487.07l-18.5,24.67h-2.11L389.56,487v41.3H378.85v-56.8h12.33L409,495.91l17.78-24.42H439v56.8H428.27Z"/><path class="cls-2" d="M504.71,499.32c.24,14.37-8.52,28.89-28.41,28.89H454v-56.8H476.3C495.78,471.41,504.46,485.28,504.71,499.32Zm-40.09,18.59H476.3c12.91,0,18-9.42,17.78-18.67-.25-8.84-5.44-17.69-17.78-17.69H464.62Z"/><path class="cls-2" d="M563.62,487.88c0,4.38-2.11,8.6-7.39,11,6.66,2,9.09,9.08,9.09,12.66,0,12.65-9.49,16.71-21.26,16.71H517.12v-56.8h26.94C555.26,471.41,563.62,476.44,563.62,487.88Zm-36,6.33h16.39c6.73,0,8.93-2.84,8.93-6.09,0-2.59-2.11-7-8.93-7H527.67Zm0,24h16.39c4.38,0,10.63-1.46,10.63-6.82,0-5.11-6.25-7.79-10.63-7.79H527.67Z"/><path class="cls-2" d="M615.31,481.15h-18v-9.74H644v9.74H626v47.06H615.31Z"/><path class="cls-2" d="M698.56,528.21H656v-56.8h42.52V481.8H666.67v13.06h30.75v10H666.67v12.82h31.89Z"/><path class="cls-2" d="M762.58,521.07c-5.84,5.76-13.39,8.44-21.58,8.44-21.1,0-30-14.53-30.11-29.29s9.58-30,30.11-30A29.26,29.26,0,0,1,761.85,479l-7.14,6.89A19.5,19.5,0,0,0,741,480.5c-13.72,0-19.64,10.22-19.56,19.72S727,519.45,741,519.45a20.92,20.92,0,0,0,14.28-5.76Z"/><path class="cls-2" d="M813,528.29v-23H785.06v23H774.35v-56.8h10.71v23.94H813V471.49H823.6v56.8Z"/></svg>